{
  "accessors": [
    {
      "bufferView": 2,
      "componentType": 5126,
      "count": 65532,
      "max": [
        8.77560806274414,
        23.59650421142578,
        7.638166904449463
      ],
      "min": [
        -8.77560806274414,
        -23.596506118774414,
        -7.580516815185547
      ],
      "type": "VEC3"
    },
    {
      "bufferView": 2,
      "byteOffset": 786384,
      "componentType": 5126,
      "count": 65532,
      "max": [
        0.9999889731407166,
        0.9881162643432617,
        0.9999971389770508
      ],
      "min": [
        -0.999995231628418,
        -0.9999984502792358,
        -0.9999980926513672
      ],
      "type": "VEC3"
    },
    {
      "bufferView": 3,
      "componentType": 5126,
      "count": 65532,
      "max": [
        0.9995651841163635,
        0.9999986290931702,
        0.9999985694885254,
        1.0
      ],
      "min": [
        -0.9999800324440002,
        -0.9999464750289917,
        -0.9998736381530762,
        -1.0
      ],
      "type": "VEC4"
    },
    {
      "bufferView": 1,
      "componentType": 5126,
      "count": 65532,
      "max": [
        0.9993900060653687,
        0.9993900060653687
      ],
      "min": [
        0.0006099999882280827,
        0.0006099999882280827
      ],
      "type": "VEC2"
    },
    {
      "bufferView": 0,
      "componentType": 5125,
      "count": 351219,
      "type": "SCALAR"
    },
    {
      "bufferView": 2,
      "byteOffset": 1572768,
      "componentType": 5126,
      "count": 35148,
      "max": [
        8.712858200073242,
        23.556766510009766,
        7.611374855041504
      ],
      "min": [
        -8.773506164550781,
        2.9789350032806396,
        -7.6381659507751465
      ],
      "type": "VEC3"
    },
    {
      "bufferView": 2,
      "byteOffset": 1994544,
      "componentType": 5126,
      "count": 35148,
      "max": [
        0.9999863505363464,
        0.9969883561134338,
        0.9999792575836182
      ],
      "min": [
        -0.9999911189079285,
        -0.9999984502792358,
        -0.9999974966049194
      ],
      "type": "VEC3"
    },
    {
      "bufferView": 3,
      "byteOffset": 1048512,
      "componentType": 5126,
      "count": 35148,
      "max": [
        0.9998711943626404,
        0.9999428987503052,
        0.9999167919158936,
        1.0
      ],
      "min": [
        -0.9999988079071045,
        -0.999794602394104,
        -0.9999419450759888,
        -1.0
      ],
      "type": "VEC4"
    },
    {
      "bufferView": 1,
      "byteOffset": 524256,
      "componentType": 5126,
      "count": 35148,
      "max": [
        0.9987710118293762,
        0.9885759949684143
      ],
      "min": [
        0.0006099999882280827,
        0.0006099999882280827
      ],
      "type": "VEC2"
    },
    {
      "bufferView": 0,
      "byteOffset": 1404876,
      "componentType": 5125,
      "count": 162177,
      "type": "SCALAR"
    }
  ],
  "asset": {
    "extras": {
      "author": "Andrea Spognetta (Spogna) (https://sketchfab.com/spogna)",
      "license": "CC-BY-NC-4.0 (http://creativecommons.org/licenses/by-nc/4.0/)",
      "source": "https://sketchfab.com/3d-models/statue-of-bacchus-09f1c94f43e0400c8916149bab297918",
      "title": "Statue of Bacchus"
    },
    "generator": "Sketchfab-12.67.0",
    "version": "2.0"
  },
  "bufferViews": [
    {
      "buffer": 0,
      "byteLength": 2053584,
      "name": "floatBufferViews",
      "target": 34963
    },
    {
      "buffer": 0,
      "byteLength": 805440,
      "byteOffset": 2053584,
      "byteStride": 8,
      "name": "floatBufferViews",
      "target": 34962
    },
    {
      "buffer": 0,
      "byteLength": 2416320,
      "byteOffset": 2859024,
      "byteStride": 12,
      "name": "floatBufferViews",
      "target": 34962
    },
    {
      "buffer": 0,
      "byteLength": 1610880,
      "byteOffset": 5275344,
      "byteStride": 16,
      "name": "floatBufferViews",
      "target": 34962
    }
  ],
  "buffers": [
    {
      "byteLength": 6886224,
      "uri": "scene.bin"
    }
  ],
  "images": [
    {
      "uri": "textures/material_0_baseColor.jpeg"
    },
    {
      "uri": "textures/material_0_metallicRoughness.png"
    },
    {
      "uri": "textures/material_0_normal.jpeg"
    }
  ],
  "materials": [
    {
      "doubleSided": true,
      "name": "material_0",
      "normalTexture": {
        "index": 2
      },
      "occlusionTexture": {
        "index": 1
      },
      "pbrMetallicRoughness": {
        "baseColorTexture": {
          "index": 0
        },
        "metallicFactor": 0.0,
        "metallicRoughnessTexture": {
          "index": 1
        },
        "roughnessFactor": 0.0
      }
    }
  ],
  "meshes": [
    {
      "name": "Object_0",
      "primitives": [
        {
          "attributes": {
            "NORMAL": 1,
            "POSITION": 0,
            "TANGENT": 2,
            "TEXCOORD_0": 3
          },
          "indices": 4,
          "material": 0,
          "mode": 4
        }
      ]
    },
    {
      "name": "Object_1",
      "primitives": [
        {
          "attributes": {
            "NORMAL": 6,
            "POSITION": 5,
            "TANGENT": 7,
            "TEXCOORD_0": 8
          },
          "indices": 9,
          "material": 0,
          "mode": 4
        }
      ]
    }
  ],
  "nodes": [
    {
      "children": [
        1
      ],
      "matrix": [
        1.0,
        0.0,
        0.0,
        0.0,
        0.0,
        -1.0,
        -4.440892098500626e-16,
        0.0,
        0.0,
        4.440892098500626e-16,
        -1.0,
        0.0,
        0.0,
        -2.86102294921875e-06,
        -9.536743164062506e-07,
        1.0
      ],
      "name": "Sketchfab_model"
    },
    {
      "children": [
        2,
        3
      ],
      "name": "bacco.obj.cleaner.materialmerger.gles"
    },
    {
      "mesh": 0,
      "name": "Object_2"
    },
    {
      "mesh": 1,
      "name": "Object_3"
    }
  ],
  "samplers": [
    {
      "magFilter": 9729,
      "minFilter": 9987,
      "wrapS": 10497,
      "wrapT": 10497
    }
  ],
  "scene": 0,
  "scenes": [
    {
      "name": "Sketchfab_Scene",
      "nodes": [
        0
      ]
    }
  ],
  "textures": [
    {
      "sampler": 0,
      "source": 0
    },
    {
      "sampler": 0,
      "source": 1
    },
    {
      "sampler": 0,
      "source": 2
    }
  ]
}
