<svg xmlns="http://www.w3.org/2000/svg" width="439" height="95" fill="none" viewBox="0 0 439 95"><g filter="url(#filter0_i_541_1295)"><path fill="#C8C9CB" d="M2.04 10.892H12.4V12.684H2.04V10.892ZM2.264 21H0.192V1.4H13.632V3.192H2.264V21ZM16.6013 21V6.3H18.5053V10.304L18.3093 9.604C18.72 8.484 19.4106 7.63467 20.3813 7.056C21.352 6.45867 22.556 6.16 23.9933 6.16V8.092C23.9186 8.092 23.844 8.092 23.7693 8.092C23.6946 8.07333 23.62 8.064 23.5453 8.064C21.996 8.064 20.7826 8.54 19.9053 9.492C19.028 10.4253 18.5893 11.76 18.5893 13.496V21H16.6013ZM33.1121 21.14C31.5815 21.14 30.2375 20.8227 29.0801 20.188C27.9228 19.5347 27.0175 18.648 26.3641 17.528C25.7108 16.3893 25.3841 15.092 25.3841 13.636C25.3841 12.18 25.6921 10.892 26.3081 9.772C26.9428 8.652 27.8015 7.77467 28.8841 7.14C29.9855 6.48667 31.2175 6.16 32.5801 6.16C33.9615 6.16 35.1841 6.47733 36.2481 7.112C37.3308 7.728 38.1801 8.60533 38.7961 9.744C39.4121 10.864 39.7201 12.1613 39.7201 13.636C39.7201 13.7293 39.7108 13.832 39.6921 13.944C39.6921 14.0373 39.6921 14.14 39.6921 14.252H26.8961V12.768H38.6281L37.8441 13.356C37.8441 12.292 37.6108 11.3493 37.1441 10.528C36.6961 9.688 36.0801 9.03467 35.2961 8.568C34.5121 8.10133 33.6068 7.868 32.5801 7.868C31.5721 7.868 30.6668 8.10133 29.8641 8.568C29.0615 9.03467 28.4361 9.688 27.9881 10.528C27.5401 11.368 27.3161 12.3293 27.3161 13.412V13.72C27.3161 14.84 27.5588 15.8293 28.0441 16.688C28.5481 17.528 29.2388 18.1907 30.1161 18.676C31.0121 19.1427 32.0295 19.376 33.1681 19.376C34.0641 19.376 34.8948 19.2173 35.6601 18.9C36.4441 18.5827 37.1161 18.0973 37.6761 17.444L38.7961 18.732C38.1428 19.516 37.3215 20.1133 36.3321 20.524C35.3615 20.9347 34.2881 21.14 33.1121 21.14ZM49.3946 21.14C47.8639 21.14 46.5199 20.8227 45.3626 20.188C44.2052 19.5347 43.2999 18.648 42.6466 17.528C41.9932 16.3893 41.6666 15.092 41.6666 13.636C41.6666 12.18 41.9746 10.892 42.5906 9.772C43.2252 8.652 44.0839 7.77467 45.1666 7.14C46.2679 6.48667 47.4999 6.16 48.8626 6.16C50.2439 6.16 51.4666 6.47733 52.5306 7.112C53.6132 7.728 54.4626 8.60533 55.0786 9.744C55.6946 10.864 56.0026 12.1613 56.0026 13.636C56.0026 13.7293 55.9932 13.832 55.9746 13.944C55.9746 14.0373 55.9746 14.14 55.9746 14.252H43.1786V12.768H54.9106L54.1266 13.356C54.1266 12.292 53.8932 11.3493 53.4266 10.528C52.9786 9.688 52.3626 9.03467 51.5786 8.568C50.7946 8.10133 49.8892 7.868 48.8626 7.868C47.8546 7.868 46.9492 8.10133 46.1466 8.568C45.3439 9.03467 44.7186 9.688 44.2706 10.528C43.8226 11.368 43.5986 12.3293 43.5986 13.412V13.72C43.5986 14.84 43.8412 15.8293 44.3266 16.688C44.8306 17.528 45.5212 18.1907 46.3986 18.676C47.2946 19.1427 48.3119 19.376 49.4506 19.376C50.3466 19.376 51.1772 19.2173 51.9426 18.9C52.7266 18.5827 53.3986 18.0973 53.9586 17.444L55.0786 18.732C54.4252 19.516 53.6039 20.1133 52.6146 20.524C51.6439 20.9347 50.5706 21.14 49.3946 21.14ZM59.433 21V0.223999H61.421V21H59.433ZM75.5485 21V17.752L75.4645 17.22V11.788C75.4645 10.5373 75.1099 9.576 74.4005 8.904C73.7099 8.232 72.6739 7.896 71.2925 7.896C70.3405 7.896 69.4352 8.05467 68.5765 8.372C67.7179 8.68933 66.9899 9.10933 66.3925 9.632L65.4965 8.148C66.2432 7.51333 67.1392 7.028 68.1845 6.692C69.2299 6.33733 70.3312 6.16 71.4885 6.16C73.3925 6.16 74.8579 6.636 75.8845 7.588C76.9299 8.52133 77.4525 9.94933 77.4525 11.872V21H75.5485ZM70.4805 21.14C69.3792 21.14 68.4179 20.9627 67.5965 20.608C66.7939 20.2347 66.1779 19.7307 65.7485 19.096C65.3192 18.4427 65.1045 17.696 65.1045 16.856C65.1045 16.0907 65.2819 15.4 65.6365 14.784C66.0099 14.1493 66.6072 13.6453 67.4285 13.272C68.2685 12.88 69.3885 12.684 70.7885 12.684H75.8565V14.168H70.8445C69.4259 14.168 68.4365 14.42 67.8765 14.924C67.3352 15.428 67.0645 16.0533 67.0645 16.8C67.0645 17.64 67.3912 18.312 68.0445 18.816C68.6979 19.32 69.6125 19.572 70.7885 19.572C71.9085 19.572 72.8699 19.32 73.6725 18.816C74.4939 18.2933 75.0912 17.5467 75.4645 16.576L75.9125 17.948C75.5392 18.9187 74.8859 19.6933 73.9525 20.272C73.0379 20.8507 71.8805 21.14 70.4805 21.14ZM89.7402 6.16C90.9348 6.16 91.9802 6.39333 92.8762 6.86C93.7908 7.308 94.5002 7.99867 95.0042 8.932C95.5268 9.86533 95.7882 11.0413 95.7882 12.46V21H93.8002V12.656C93.8002 11.1067 93.4082 9.94 92.6242 9.156C91.8588 8.35333 90.7762 7.952 89.3762 7.952C88.3308 7.952 87.4162 8.16667 86.6322 8.596C85.8668 9.00667 85.2695 9.61333 84.8402 10.416C84.4295 11.2 84.2242 12.152 84.2242 13.272V21H82.2362V6.3H84.1402V10.332L83.8322 9.576C84.2988 8.512 85.0455 7.68133 86.0722 7.084C87.0988 6.468 88.3215 6.16 89.7402 6.16ZM106.646 21.14C105.19 21.14 103.883 20.8227 102.726 20.188C101.587 19.5347 100.691 18.648 100.038 17.528C99.3847 16.3893 99.058 15.092 99.058 13.636C99.058 12.1613 99.3847 10.864 100.038 9.744C100.691 8.624 101.587 7.74667 102.726 7.112C103.883 6.47733 105.19 6.16 106.646 6.16C107.897 6.16 109.026 6.40267 110.034 6.888C111.042 7.37333 111.835 8.10133 112.414 9.072L110.93 10.08C110.426 9.33333 109.801 8.78267 109.054 8.428C108.307 8.07333 107.495 7.896 106.618 7.896C105.573 7.896 104.63 8.13867 103.79 8.624C102.95 9.09067 102.287 9.75333 101.802 10.612C101.317 11.4707 101.074 12.4787 101.074 13.636C101.074 14.7933 101.317 15.8013 101.802 16.66C102.287 17.5187 102.95 18.1907 103.79 18.676C104.63 19.1427 105.573 19.376 106.618 19.376C107.495 19.376 108.307 19.1987 109.054 18.844C109.801 18.4893 110.426 17.948 110.93 17.22L112.414 18.228C111.835 19.18 111.042 19.908 110.034 20.412C109.026 20.8973 107.897 21.14 106.646 21.14ZM121.701 21.14C120.171 21.14 118.827 20.8227 117.669 20.188C116.512 19.5347 115.607 18.648 114.953 17.528C114.3 16.3893 113.973 15.092 113.973 13.636C113.973 12.18 114.281 10.892 114.897 9.772C115.532 8.652 116.391 7.77467 117.473 7.14C118.575 6.48667 119.807 6.16 121.169 6.16C122.551 6.16 123.773 6.47733 124.837 7.112C125.92 7.728 126.769 8.60533 127.385 9.744C128.001 10.864 128.309 12.1613 128.309 13.636C128.309 13.7293 128.3 13.832 128.281 13.944C128.281 14.0373 128.281 14.14 128.281 14.252H115.485V12.768H127.217L126.433 13.356C126.433 12.292 126.2 11.3493 125.733 10.528C125.285 9.688 124.669 9.03467 123.885 8.568C123.101 8.10133 122.196 7.868 121.169 7.868C120.161 7.868 119.256 8.10133 118.453 8.568C117.651 9.03467 117.025 9.688 116.577 10.528C116.129 11.368 115.905 12.3293 115.905 13.412V13.72C115.905 14.84 116.148 15.8293 116.633 16.688C117.137 17.528 117.828 18.1907 118.705 18.676C119.601 19.1427 120.619 19.376 121.757 19.376C122.653 19.376 123.484 19.2173 124.249 18.9C125.033 18.5827 125.705 18.0973 126.265 17.444L127.385 18.732C126.732 19.516 125.911 20.1133 124.921 20.524C123.951 20.9347 122.877 21.14 121.701 21.14ZM141.448 21L135.904 6.3H137.808L142.848 19.936H141.98L147.16 6.3H148.868L153.992 19.936H153.124L158.248 6.3H160.068L154.496 21H152.62L147.692 8.176H148.28L143.324 21H141.448ZM168.279 21.14C166.748 21.14 165.404 20.8227 164.247 20.188C163.09 19.5347 162.184 18.648 161.531 17.528C160.878 16.3893 160.551 15.092 160.551 13.636C160.551 12.18 160.859 10.892 161.475 9.772C162.11 8.652 162.968 7.77467 164.051 7.14C165.152 6.48667 166.384 6.16 167.747 6.16C169.128 6.16 170.351 6.47733 171.415 7.112C172.498 7.728 173.347 8.60533 173.963 9.744C174.579 10.864 174.887 12.1613 174.887 13.636C174.887 13.7293 174.878 13.832 174.859 13.944C174.859 14.0373 174.859 14.14 174.859 14.252H162.063V12.768H173.795L173.011 13.356C173.011 12.292 172.778 11.3493 172.311 10.528C171.863 9.688 171.247 9.03467 170.463 8.568C169.679 8.10133 168.774 7.868 167.747 7.868C166.739 7.868 165.834 8.10133 165.031 8.568C164.228 9.03467 163.603 9.688 163.155 10.528C162.707 11.368 162.483 12.3293 162.483 13.412V13.72C162.483 14.84 162.726 15.8293 163.211 16.688C163.715 17.528 164.406 18.1907 165.283 18.676C166.179 19.1427 167.196 19.376 168.335 19.376C169.231 19.376 170.062 19.2173 170.827 18.9C171.611 18.5827 172.283 18.0973 172.843 17.444L173.963 18.732C173.31 19.516 172.488 20.1133 171.499 20.524C170.528 20.9347 169.455 21.14 168.279 21.14ZM185.906 21.14C184.618 21.14 183.46 20.8507 182.434 20.272C181.407 19.6747 180.595 18.816 179.998 17.696C179.4 16.576 179.102 15.2227 179.102 13.636C179.102 12.0307 179.4 10.6773 179.998 9.576C180.614 8.456 181.435 7.60667 182.462 7.028C183.488 6.44933 184.636 6.16 185.906 6.16C187.306 6.16 188.556 6.47733 189.658 7.112C190.778 7.728 191.655 8.596 192.29 9.716C192.924 10.836 193.242 12.1427 193.242 13.636C193.242 15.1107 192.924 16.4173 192.29 17.556C191.655 18.676 190.778 19.5533 189.658 20.188C188.556 20.8227 187.306 21.14 185.906 21.14ZM178.318 21V0.223999H180.306V10.64L180.026 13.608L180.222 16.576V21H178.318ZM185.766 19.376C186.811 19.376 187.744 19.1427 188.566 18.676C189.387 18.1907 190.04 17.5187 190.526 16.66C191.011 15.7827 191.254 14.7747 191.254 13.636C191.254 12.4787 191.011 11.4707 190.526 10.612C190.04 9.75333 189.387 9.09067 188.566 8.624C187.744 8.13867 186.811 7.896 185.766 7.896C184.72 7.896 183.778 8.13867 182.938 8.624C182.116 9.09067 181.463 9.75333 180.978 10.612C180.511 11.4707 180.278 12.4787 180.278 13.636C180.278 14.7747 180.511 15.7827 180.978 16.66C181.463 17.5187 182.116 18.1907 182.938 18.676C183.778 19.1427 184.72 19.376 185.766 19.376ZM195.86 14.28V12.544H203.196V14.28H195.86ZM213.152 21.14C211.752 21.14 210.492 20.8227 209.372 20.188C208.271 19.5533 207.403 18.676 206.768 17.556C206.134 16.4173 205.816 15.1107 205.816 13.636C205.816 12.1427 206.134 10.836 206.768 9.716C207.403 8.596 208.271 7.728 209.372 7.112C210.492 6.47733 211.752 6.16 213.152 6.16C214.44 6.16 215.588 6.44933 216.596 7.028C217.623 7.60667 218.435 8.456 219.032 9.576C219.648 10.6773 219.956 12.0307 219.956 13.636C219.956 15.2227 219.658 16.576 219.06 17.696C218.463 18.816 217.651 19.6747 216.624 20.272C215.616 20.8507 214.459 21.14 213.152 21.14ZM213.292 19.376C214.338 19.376 215.271 19.1427 216.092 18.676C216.932 18.1907 217.586 17.5187 218.052 16.66C218.538 15.7827 218.78 14.7747 218.78 13.636C218.78 12.4787 218.538 11.4707 218.052 10.612C217.586 9.75333 216.932 9.09067 216.092 8.624C215.271 8.13867 214.338 7.896 213.292 7.896C212.266 7.896 211.342 8.13867 210.52 8.624C209.699 9.09067 209.046 9.75333 208.56 10.612C208.075 11.4707 207.832 12.4787 207.832 13.636C207.832 14.7747 208.075 15.7827 208.56 16.66C209.046 17.5187 209.699 18.1907 210.52 18.676C211.342 19.1427 212.266 19.376 213.292 19.376ZM218.836 21V16.576L219.032 13.608L218.752 10.64V0.223999H220.74V21H218.836ZM231.905 21.14C230.374 21.14 229.03 20.8227 227.873 20.188C226.716 19.5347 225.81 18.648 225.157 17.528C224.504 16.3893 224.177 15.092 224.177 13.636C224.177 12.18 224.485 10.892 225.101 9.772C225.736 8.652 226.594 7.77467 227.677 7.14C228.778 6.48667 230.01 6.16 231.373 6.16C232.754 6.16 233.977 6.47733 235.041 7.112C236.124 7.728 236.973 8.60533 237.589 9.744C238.205 10.864 238.513 12.1613 238.513 13.636C238.513 13.7293 238.504 13.832 238.485 13.944C238.485 14.0373 238.485 14.14 238.485 14.252H225.689V12.768H237.421L236.637 13.356C236.637 12.292 236.404 11.3493 235.937 10.528C235.489 9.688 234.873 9.03467 234.089 8.568C233.305 8.10133 232.4 7.868 231.373 7.868C230.365 7.868 229.46 8.10133 228.657 8.568C227.854 9.03467 227.229 9.688 226.781 10.528C226.333 11.368 226.109 12.3293 226.109 13.412V13.72C226.109 14.84 226.352 15.8293 226.837 16.688C227.341 17.528 228.032 18.1907 228.909 18.676C229.805 19.1427 230.822 19.376 231.961 19.376C232.857 19.376 233.688 19.2173 234.453 18.9C235.237 18.5827 235.909 18.0973 236.469 17.444L237.589 18.732C236.936 19.516 236.114 20.1133 235.125 20.524C234.154 20.9347 233.081 21.14 231.905 21.14ZM245.45 21L238.926 6.3H240.998L246.99 19.936H246.01L252.086 6.3H254.046L247.494 21H245.45ZM262.064 21.14C260.533 21.14 259.189 20.8227 258.032 20.188C256.874 19.5347 255.969 18.648 255.316 17.528C254.662 16.3893 254.336 15.092 254.336 13.636C254.336 12.18 254.644 10.892 255.26 9.772C255.894 8.652 256.753 7.77467 257.836 7.14C258.937 6.48667 260.169 6.16 261.532 6.16C262.913 6.16 264.136 6.47733 265.2 7.112C266.282 7.728 267.132 8.60533 267.748 9.744C268.364 10.864 268.672 12.1613 268.672 13.636C268.672 13.7293 268.662 13.832 268.644 13.944C268.644 14.0373 268.644 14.14 268.644 14.252H255.848V12.768H267.58L266.796 13.356C266.796 12.292 266.562 11.3493 266.096 10.528C265.648 9.688 265.032 9.03467 264.248 8.568C263.464 8.10133 262.558 7.868 261.532 7.868C260.524 7.868 259.618 8.10133 258.816 8.568C258.013 9.03467 257.388 9.688 256.94 10.528C256.492 11.368 256.268 12.3293 256.268 13.412V13.72C256.268 14.84 256.51 15.8293 256.996 16.688C257.5 17.528 258.19 18.1907 259.068 18.676C259.964 19.1427 260.981 19.376 262.12 19.376C263.016 19.376 263.846 19.2173 264.612 18.9C265.396 18.5827 266.068 18.0973 266.628 17.444L267.748 18.732C267.094 19.516 266.273 20.1133 265.284 20.524C264.313 20.9347 263.24 21.14 262.064 21.14ZM272.102 21V0.223999H274.09V21H272.102ZM284.997 21.14C283.579 21.14 282.3 20.8227 281.161 20.188C280.041 19.5347 279.155 18.648 278.501 17.528C277.848 16.3893 277.521 15.092 277.521 13.636C277.521 12.1613 277.848 10.864 278.501 9.744C279.155 8.624 280.041 7.74667 281.161 7.112C282.281 6.47733 283.56 6.16 284.997 6.16C286.453 6.16 287.741 6.47733 288.861 7.112C290 7.74667 290.887 8.624 291.521 9.744C292.175 10.864 292.501 12.1613 292.501 13.636C292.501 15.092 292.175 16.3893 291.521 17.528C290.887 18.648 290 19.5347 288.861 20.188C287.723 20.8227 286.435 21.14 284.997 21.14ZM284.997 19.376C286.061 19.376 287.004 19.1427 287.825 18.676C288.647 18.1907 289.291 17.5187 289.757 16.66C290.243 15.7827 290.485 14.7747 290.485 13.636C290.485 12.4787 290.243 11.4707 289.757 10.612C289.291 9.75333 288.647 9.09067 287.825 8.624C287.004 8.13867 286.071 7.896 285.025 7.896C283.98 7.896 283.047 8.13867 282.225 8.624C281.404 9.09067 280.751 9.75333 280.265 10.612C279.78 11.4707 279.537 12.4787 279.537 13.636C279.537 14.7747 279.78 15.7827 280.265 16.66C280.751 17.5187 281.404 18.1907 282.225 18.676C283.047 19.1427 283.971 19.376 284.997 19.376ZM303.532 21.14C302.263 21.14 301.115 20.8507 300.088 20.272C299.062 19.6747 298.24 18.8253 297.624 17.724C297.027 16.604 296.728 15.2413 296.728 13.636C296.728 12.0307 297.027 10.6773 297.624 9.576C298.222 8.456 299.034 7.60667 300.06 7.028C301.087 6.44933 302.244 6.16 303.532 6.16C304.932 6.16 306.183 6.47733 307.284 7.112C308.404 7.728 309.282 8.60533 309.916 9.744C310.551 10.864 310.868 12.1613 310.868 13.636C310.868 15.1293 310.551 16.436 309.916 17.556C309.282 18.676 308.404 19.5533 307.284 20.188C306.183 20.8227 304.932 21.14 303.532 21.14ZM295.944 26.432V6.3H297.848V10.724L297.652 13.664L297.932 16.632V26.432H295.944ZM303.392 19.376C304.438 19.376 305.371 19.1427 306.192 18.676C307.014 18.1907 307.667 17.5187 308.152 16.66C308.638 15.7827 308.88 14.7747 308.88 13.636C308.88 12.4973 308.638 11.4987 308.152 10.64C307.667 9.78133 307.014 9.10933 306.192 8.624C305.371 8.13867 304.438 7.896 303.392 7.896C302.347 7.896 301.404 8.13867 300.564 8.624C299.743 9.10933 299.09 9.78133 298.604 10.64C298.138 11.4987 297.904 12.4973 297.904 13.636C297.904 14.7747 298.138 15.7827 298.604 16.66C299.09 17.5187 299.743 18.1907 300.564 18.676C301.404 19.1427 302.347 19.376 303.392 19.376ZM320.549 21.14C319.018 21.14 317.674 20.8227 316.517 20.188C315.359 19.5347 314.454 18.648 313.801 17.528C313.147 16.3893 312.821 15.092 312.821 13.636C312.821 12.18 313.129 10.892 313.745 9.772C314.379 8.652 315.238 7.77467 316.321 7.14C317.422 6.48667 318.654 6.16 320.017 6.16C321.398 6.16 322.621 6.47733 323.685 7.112C324.767 7.728 325.617 8.60533 326.233 9.744C326.849 10.864 327.157 12.1613 327.157 13.636C327.157 13.7293 327.147 13.832 327.129 13.944C327.129 14.0373 327.129 14.14 327.129 14.252H314.333V12.768H326.065L325.281 13.356C325.281 12.292 325.047 11.3493 324.581 10.528C324.133 9.688 323.517 9.03467 322.733 8.568C321.949 8.10133 321.043 7.868 320.017 7.868C319.009 7.868 318.103 8.10133 317.301 8.568C316.498 9.03467 315.873 9.688 315.425 10.528C314.977 11.368 314.753 12.3293 314.753 13.412V13.72C314.753 14.84 314.995 15.8293 315.481 16.688C315.985 17.528 316.675 18.1907 317.553 18.676C318.449 19.1427 319.466 19.376 320.605 19.376C321.501 19.376 322.331 19.2173 323.097 18.9C323.881 18.5827 324.553 18.0973 325.113 17.444L326.233 18.732C325.579 19.516 324.758 20.1133 323.769 20.524C322.798 20.9347 321.725 21.14 320.549 21.14ZM330.587 21V6.3H332.491V10.304L332.295 9.604C332.706 8.484 333.397 7.63467 334.367 7.056C335.338 6.45867 336.542 6.16 337.979 6.16V8.092C337.905 8.092 337.83 8.092 337.755 8.092C337.681 8.07333 337.606 8.064 337.531 8.064C335.982 8.064 334.769 8.54 333.891 9.492C333.014 10.4253 332.575 11.76 332.575 13.496V21H330.587ZM341.132 21.14C340.721 21.14 340.367 20.9907 340.068 20.692C339.788 20.3933 339.648 20.0293 339.648 19.6C339.648 19.152 339.788 18.788 340.068 18.508C340.367 18.228 340.721 18.088 341.132 18.088C341.543 18.088 341.888 18.228 342.168 18.508C342.467 18.788 342.616 19.152 342.616 19.6C342.616 20.0293 342.467 20.3933 342.168 20.692C341.888 20.9907 341.543 21.14 341.132 21.14ZM2.04 44.892H12.4V46.684H2.04V44.892ZM2.264 55H0.192V35.4H13.632V37.192H2.264V55ZM22.4586 55.14C21.2079 55.14 20.1159 54.9067 19.1826 54.44C18.2492 53.9733 17.5212 53.2733 16.9986 52.34C16.4946 51.4067 16.2426 50.24 16.2426 48.84V40.3H18.2306V48.616C18.2306 50.184 18.6132 51.3693 19.3786 52.172C20.1626 52.956 21.2546 53.348 22.6546 53.348C23.6812 53.348 24.5679 53.1427 25.3146 52.732C26.0799 52.3027 26.6586 51.6867 27.0506 50.884C27.4612 50.0813 27.6666 49.12 27.6666 48V40.3H29.6546V55H27.7506V50.968L28.0586 51.696C27.5919 52.7787 26.8639 53.628 25.8746 54.244C24.9039 54.8413 23.7652 55.14 22.4586 55.14ZM34.5791 55V34.224H36.5671V55H34.5791ZM41.4826 55V34.224H43.4706V55H41.4826ZM47.2941 48.28V46.544H54.6301V48.28H47.2941ZM63.383 55.14C62.0016 55.14 60.9376 54.7667 60.191 54.02C59.4443 53.2733 59.071 52.2187 59.071 50.856V37.052H61.059V50.744C61.059 51.6027 61.2736 52.2653 61.703 52.732C62.151 53.1987 62.7856 53.432 63.607 53.432C64.4843 53.432 65.2123 53.18 65.791 52.676L66.491 54.104C66.099 54.4587 65.623 54.72 65.063 54.888C64.5216 55.056 63.9616 55.14 63.383 55.14ZM56.439 41.952V40.3H65.539V41.952H56.439ZM69.494 55V40.3H71.482V55H69.494ZM70.502 37.052C70.0913 37.052 69.746 36.912 69.466 36.632C69.186 36.352 69.046 36.016 69.046 35.624C69.046 35.232 69.186 34.9053 69.466 34.644C69.746 34.364 70.0913 34.224 70.502 34.224C70.9126 34.224 71.258 34.3547 71.538 34.616C71.818 34.8773 71.958 35.204 71.958 35.596C71.958 36.0067 71.818 36.352 71.538 36.632C71.2766 36.912 70.9313 37.052 70.502 37.052ZM94.7655 40.16C95.9602 40.16 96.9962 40.3933 97.8735 40.86C98.7695 41.308 99.4602 41.9987 99.9455 42.932C100.45 43.8653 100.702 45.0413 100.702 46.46V55H98.7135V46.656C98.7135 45.1067 98.3402 43.94 97.5935 43.156C96.8655 42.3533 95.8295 41.952 94.4855 41.952C93.4775 41.952 92.6002 42.1667 91.8535 42.596C91.1255 43.0067 90.5562 43.6133 90.1455 44.416C89.7535 45.2 89.5575 46.152 89.5575 47.272V55H87.5695V46.656C87.5695 45.1067 87.1962 43.94 86.4495 43.156C85.7028 42.3533 84.6575 41.952 83.3135 41.952C82.3242 41.952 81.4562 42.1667 80.7095 42.596C79.9628 43.0067 79.3842 43.6133 78.9735 44.416C78.5815 45.2 78.3855 46.152 78.3855 47.272V55H76.3975V40.3H78.3015V44.276L77.9935 43.576C78.4415 42.512 79.1602 41.6813 80.1495 41.084C81.1575 40.468 82.3428 40.16 83.7055 40.16C85.1428 40.16 86.3655 40.524 87.3735 41.252C88.3815 41.9613 89.0348 43.0347 89.3335 44.472L88.5495 44.164C88.9788 42.9693 89.7348 42.008 90.8175 41.28C91.9188 40.5333 93.2348 40.16 94.7655 40.16ZM111.721 55.14C110.19 55.14 108.846 54.8227 107.689 54.188C106.531 53.5347 105.626 52.648 104.973 51.528C104.319 50.3893 103.993 49.092 103.993 47.636C103.993 46.18 104.301 44.892 104.917 43.772C105.551 42.652 106.41 41.7747 107.493 41.14C108.594 40.4867 109.826 40.16 111.189 40.16C112.57 40.16 113.793 40.4773 114.857 41.112C115.939 41.728 116.789 42.6053 117.405 43.744C118.021 44.864 118.329 46.1613 118.329 47.636C118.329 47.7293 118.319 47.832 118.301 47.944C118.301 48.0373 118.301 48.14 118.301 48.252H105.505V46.768H117.237L116.453 47.356C116.453 46.292 116.219 45.3493 115.753 44.528C115.305 43.688 114.689 43.0347 113.905 42.568C113.121 42.1013 112.215 41.868 111.189 41.868C110.181 41.868 109.275 42.1013 108.473 42.568C107.67 43.0347 107.045 43.688 106.597 44.528C106.149 45.368 105.925 46.3293 105.925 47.412V47.72C105.925 48.84 106.167 49.8293 106.653 50.688C107.157 51.528 107.847 52.1907 108.725 52.676C109.621 53.1427 110.638 53.376 111.777 53.376C112.673 53.376 113.503 53.2173 114.269 52.9C115.053 52.5827 115.725 52.0973 116.285 51.444L117.405 52.732C116.751 53.516 115.93 54.1133 114.941 54.524C113.97 54.9347 112.897 55.14 111.721 55.14ZM134.575 55.14C133.119 55.14 131.813 54.8227 130.655 54.188C129.517 53.5347 128.621 52.648 127.967 51.528C127.314 50.3893 126.987 49.092 126.987 47.636C126.987 46.1613 127.314 44.864 127.967 43.744C128.621 42.624 129.517 41.7467 130.655 41.112C131.813 40.4773 133.119 40.16 134.575 40.16C135.826 40.16 136.955 40.4027 137.963 40.888C138.971 41.3733 139.765 42.1013 140.343 43.072L138.859 44.08C138.355 43.3333 137.73 42.7827 136.983 42.428C136.237 42.0733 135.425 41.896 134.547 41.896C133.502 41.896 132.559 42.1387 131.719 42.624C130.879 43.0907 130.217 43.7533 129.731 44.612C129.246 45.4707 129.003 46.4787 129.003 47.636C129.003 48.7933 129.246 49.8013 129.731 50.66C130.217 51.5187 130.879 52.1907 131.719 52.676C132.559 53.1427 133.502 53.376 134.547 53.376C135.425 53.376 136.237 53.1987 136.983 52.844C137.73 52.4893 138.355 51.948 138.859 51.22L140.343 52.228C139.765 53.18 138.971 53.908 137.963 54.412C136.955 54.8973 135.826 55.14 134.575 55.14ZM149.379 55.14C147.96 55.14 146.681 54.8227 145.543 54.188C144.423 53.5347 143.536 52.648 142.883 51.528C142.229 50.3893 141.903 49.092 141.903 47.636C141.903 46.1613 142.229 44.864 142.883 43.744C143.536 42.624 144.423 41.7467 145.543 41.112C146.663 40.4773 147.941 40.16 149.379 40.16C150.835 40.16 152.123 40.4773 153.243 41.112C154.381 41.7467 155.268 42.624 155.903 43.744C156.556 44.864 156.883 46.1613 156.883 47.636C156.883 49.092 156.556 50.3893 155.903 51.528C155.268 52.648 154.381 53.5347 153.243 54.188C152.104 54.8227 150.816 55.14 149.379 55.14ZM149.379 53.376C150.443 53.376 151.385 53.1427 152.207 52.676C153.028 52.1907 153.672 51.5187 154.139 50.66C154.624 49.7827 154.867 48.7747 154.867 47.636C154.867 46.4787 154.624 45.4707 154.139 44.612C153.672 43.7533 153.028 43.0907 152.207 42.624C151.385 42.1387 150.452 41.896 149.407 41.896C148.361 41.896 147.428 42.1387 146.607 42.624C145.785 43.0907 145.132 43.7533 144.647 44.612C144.161 45.4707 143.919 46.4787 143.919 47.636C143.919 48.7747 144.161 49.7827 144.647 50.66C145.132 51.5187 145.785 52.1907 146.607 52.676C147.428 53.1427 148.352 53.376 149.379 53.376ZM169.455 55V51.752L169.371 51.22V45.788C169.371 44.5373 169.017 43.576 168.307 42.904C167.617 42.232 166.581 41.896 165.199 41.896C164.247 41.896 163.342 42.0547 162.483 42.372C161.625 42.6893 160.897 43.1093 160.299 43.632L159.403 42.148C160.15 41.5133 161.046 41.028 162.091 40.692C163.137 40.3373 164.238 40.16 165.395 40.16C167.299 40.16 168.765 40.636 169.791 41.588C170.837 42.5213 171.359 43.9493 171.359 45.872V55H169.455ZM164.387 55.14C163.286 55.14 162.325 54.9627 161.503 54.608C160.701 54.2347 160.085 53.7307 159.655 53.096C159.226 52.4427 159.011 51.696 159.011 50.856C159.011 50.0907 159.189 49.4 159.543 48.784C159.917 48.1493 160.514 47.6453 161.335 47.272C162.175 46.88 163.295 46.684 164.695 46.684H169.763V48.168H164.751C163.333 48.168 162.343 48.42 161.783 48.924C161.242 49.428 160.971 50.0533 160.971 50.8C160.971 51.64 161.298 52.312 161.951 52.816C162.605 53.32 163.519 53.572 164.695 53.572C165.815 53.572 166.777 53.32 167.579 52.816C168.401 52.2933 168.998 51.5467 169.371 50.576L169.819 51.948C169.446 52.9187 168.793 53.6933 167.859 54.272C166.945 54.8507 165.787 55.14 164.387 55.14ZM182.247 55.14C180.791 55.14 179.484 54.8227 178.327 54.188C177.188 53.5347 176.292 52.648 175.639 51.528C174.986 50.3893 174.659 49.092 174.659 47.636C174.659 46.1613 174.986 44.864 175.639 43.744C176.292 42.624 177.188 41.7467 178.327 41.112C179.484 40.4773 180.791 40.16 182.247 40.16C183.498 40.16 184.627 40.4027 185.635 40.888C186.643 41.3733 187.436 42.1013 188.015 43.072L186.531 44.08C186.027 43.3333 185.402 42.7827 184.655 42.428C183.908 42.0733 183.096 41.896 182.219 41.896C181.174 41.896 180.231 42.1387 179.391 42.624C178.551 43.0907 177.888 43.7533 177.403 44.612C176.918 45.4707 176.675 46.4787 176.675 47.636C176.675 48.7933 176.918 49.8013 177.403 50.66C177.888 51.5187 178.551 52.1907 179.391 52.676C180.231 53.1427 181.174 53.376 182.219 53.376C183.096 53.376 183.908 53.1987 184.655 52.844C185.402 52.4893 186.027 51.948 186.531 51.22L188.015 52.228C187.436 53.18 186.643 53.908 185.635 54.412C184.627 54.8973 183.498 55.14 182.247 55.14ZM198.59 40.16C199.784 40.16 200.83 40.3933 201.726 40.86C202.64 41.308 203.35 41.9987 203.854 42.932C204.376 43.8653 204.638 45.0413 204.638 46.46V55H202.65V46.656C202.65 45.1067 202.258 43.94 201.474 43.156C200.708 42.3533 199.626 41.952 198.226 41.952C197.18 41.952 196.266 42.1667 195.482 42.596C194.716 43.0067 194.119 43.6133 193.69 44.416C193.279 45.2 193.074 46.152 193.074 47.272V55H191.086V34.224H193.074V44.332L192.682 43.576C193.148 42.512 193.895 41.6813 194.922 41.084C195.948 40.468 197.171 40.16 198.59 40.16ZM225.315 55V51.752L225.231 51.22V45.788C225.231 44.5373 224.877 43.576 224.167 42.904C223.477 42.232 222.441 41.896 221.059 41.896C220.107 41.896 219.202 42.0547 218.343 42.372C217.485 42.6893 216.757 43.1093 216.159 43.632L215.263 42.148C216.01 41.5133 216.906 41.028 217.951 40.692C218.997 40.3373 220.098 40.16 221.255 40.16C223.159 40.16 224.625 40.636 225.651 41.588C226.697 42.5213 227.219 43.9493 227.219 45.872V55H225.315ZM220.247 55.14C219.146 55.14 218.185 54.9627 217.363 54.608C216.561 54.2347 215.945 53.7307 215.515 53.096C215.086 52.4427 214.871 51.696 214.871 50.856C214.871 50.0907 215.049 49.4 215.403 48.784C215.777 48.1493 216.374 47.6453 217.195 47.272C218.035 46.88 219.155 46.684 220.555 46.684H225.623V48.168H220.611C219.193 48.168 218.203 48.42 217.643 48.924C217.102 49.428 216.831 50.0533 216.831 50.8C216.831 51.64 217.158 52.312 217.811 52.816C218.465 53.32 219.379 53.572 220.555 53.572C221.675 53.572 222.637 53.32 223.439 52.816C224.261 52.2933 224.858 51.5467 225.231 50.576L225.679 51.948C225.306 52.9187 224.653 53.6933 223.719 54.272C222.805 54.8507 221.647 55.14 220.247 55.14ZM236.651 55.14C235.27 55.14 234.206 54.7667 233.459 54.02C232.712 53.2733 232.339 52.2187 232.339 50.856V37.052H234.327V50.744C234.327 51.6027 234.542 52.2653 234.971 52.732C235.419 53.1987 236.054 53.432 236.875 53.432C237.752 53.432 238.48 53.18 239.059 52.676L239.759 54.104C239.367 54.4587 238.891 54.72 238.331 54.888C237.79 55.056 237.23 55.14 236.651 55.14ZM229.707 41.952V40.3H238.807V41.952H229.707ZM253.422 55.14C252.209 55.14 251.061 54.972 249.978 54.636C248.896 54.2813 248.046 53.8427 247.43 53.32L248.326 51.752C248.924 52.2 249.689 52.592 250.622 52.928C251.556 53.2453 252.536 53.404 253.562 53.404C254.962 53.404 255.97 53.1893 256.586 52.76C257.202 52.312 257.51 51.724 257.51 50.996C257.51 50.4547 257.333 50.0347 256.978 49.736C256.642 49.4187 256.194 49.1853 255.634 49.036C255.074 48.868 254.449 48.728 253.758 48.616C253.068 48.504 252.377 48.3733 251.686 48.224C251.014 48.0747 250.398 47.86 249.838 47.58C249.278 47.2813 248.821 46.88 248.466 46.376C248.13 45.872 247.962 45.2 247.962 44.36C247.962 43.5573 248.186 42.8387 248.634 42.204C249.082 41.5693 249.736 41.0747 250.594 40.72C251.472 40.3467 252.536 40.16 253.786 40.16C254.738 40.16 255.69 40.2907 256.642 40.552C257.594 40.7947 258.378 41.1213 258.994 41.532L258.126 43.128C257.473 42.68 256.773 42.3627 256.026 42.176C255.28 41.9707 254.533 41.868 253.786 41.868C252.461 41.868 251.481 42.1013 250.846 42.568C250.23 43.016 249.922 43.5947 249.922 44.304C249.922 44.864 250.09 45.3027 250.426 45.62C250.781 45.9373 251.238 46.1893 251.798 46.376C252.377 46.544 253.002 46.684 253.674 46.796C254.365 46.908 255.046 47.048 255.718 47.216C256.409 47.3653 257.034 47.58 257.594 47.86C258.173 48.1213 258.63 48.504 258.966 49.008C259.321 49.4933 259.498 50.1373 259.498 50.94C259.498 51.7987 259.256 52.5453 258.77 53.18C258.304 53.796 257.613 54.2813 256.698 54.636C255.802 54.972 254.71 55.14 253.422 55.14ZM268.634 55.14C267.178 55.14 265.871 54.8227 264.714 54.188C263.575 53.5347 262.679 52.648 262.026 51.528C261.373 50.3893 261.046 49.092 261.046 47.636C261.046 46.1613 261.373 44.864 262.026 43.744C262.679 42.624 263.575 41.7467 264.714 41.112C265.871 40.4773 267.178 40.16 268.634 40.16C269.885 40.16 271.014 40.4027 272.022 40.888C273.03 41.3733 273.823 42.1013 274.402 43.072L272.918 44.08C272.414 43.3333 271.789 42.7827 271.042 42.428C270.295 42.0733 269.483 41.896 268.606 41.896C267.561 41.896 266.618 42.1387 265.778 42.624C264.938 43.0907 264.275 43.7533 263.79 44.612C263.305 45.4707 263.062 46.4787 263.062 47.636C263.062 48.7933 263.305 49.8013 263.79 50.66C264.275 51.5187 264.938 52.1907 265.778 52.676C266.618 53.1427 267.561 53.376 268.606 53.376C269.483 53.376 270.295 53.1987 271.042 52.844C271.789 52.4893 272.414 51.948 272.918 51.22L274.402 52.228C273.823 53.18 273.03 53.908 272.022 54.412C271.014 54.8973 269.885 55.14 268.634 55.14ZM284.977 40.16C286.171 40.16 287.217 40.3933 288.113 40.86C289.027 41.308 289.737 41.9987 290.241 42.932C290.763 43.8653 291.025 45.0413 291.025 46.46V55H289.037V46.656C289.037 45.1067 288.645 43.94 287.861 43.156C287.095 42.3533 286.013 41.952 284.613 41.952C283.567 41.952 282.653 42.1667 281.869 42.596C281.103 43.0067 280.506 43.6133 280.077 44.416C279.666 45.2 279.461 46.152 279.461 47.272V55H277.473V34.224H279.461V44.332L279.069 43.576C279.535 42.512 280.282 41.6813 281.309 41.084C282.335 40.468 283.558 40.16 284.977 40.16ZM301.771 55.14C300.352 55.14 299.073 54.8227 297.935 54.188C296.815 53.5347 295.928 52.648 295.275 51.528C294.621 50.3893 294.295 49.092 294.295 47.636C294.295 46.1613 294.621 44.864 295.275 43.744C295.928 42.624 296.815 41.7467 297.935 41.112C299.055 40.4773 300.333 40.16 301.771 40.16C303.227 40.16 304.515 40.4773 305.635 41.112C306.773 41.7467 307.66 42.624 308.295 43.744C308.948 44.864 309.275 46.1613 309.275 47.636C309.275 49.092 308.948 50.3893 308.295 51.528C307.66 52.648 306.773 53.5347 305.635 54.188C304.496 54.8227 303.208 55.14 301.771 55.14ZM301.771 53.376C302.835 53.376 303.777 53.1427 304.599 52.676C305.42 52.1907 306.064 51.5187 306.531 50.66C307.016 49.7827 307.259 48.7747 307.259 47.636C307.259 46.4787 307.016 45.4707 306.531 44.612C306.064 43.7533 305.42 43.0907 304.599 42.624C303.777 42.1387 302.844 41.896 301.799 41.896C300.753 41.896 299.82 42.1387 298.999 42.624C298.177 43.0907 297.524 43.7533 297.039 44.612C296.553 45.4707 296.311 46.4787 296.311 47.636C296.311 48.7747 296.553 49.7827 297.039 50.66C297.524 51.5187 298.177 52.1907 298.999 52.676C299.82 53.1427 300.744 53.376 301.771 53.376ZM318.709 55.14C317.291 55.14 316.012 54.8227 314.873 54.188C313.753 53.5347 312.867 52.648 312.213 51.528C311.56 50.3893 311.233 49.092 311.233 47.636C311.233 46.1613 311.56 44.864 312.213 43.744C312.867 42.624 313.753 41.7467 314.873 41.112C315.993 40.4773 317.272 40.16 318.709 40.16C320.165 40.16 321.453 40.4773 322.573 41.112C323.712 41.7467 324.599 42.624 325.233 43.744C325.887 44.864 326.213 46.1613 326.213 47.636C326.213 49.092 325.887 50.3893 325.233 51.528C324.599 52.648 323.712 53.5347 322.573 54.188C321.435 54.8227 320.147 55.14 318.709 55.14ZM318.709 53.376C319.773 53.376 320.716 53.1427 321.537 52.676C322.359 52.1907 323.003 51.5187 323.469 50.66C323.955 49.7827 324.197 48.7747 324.197 47.636C324.197 46.4787 323.955 45.4707 323.469 44.612C323.003 43.7533 322.359 43.0907 321.537 42.624C320.716 42.1387 319.783 41.896 318.737 41.896C317.692 41.896 316.759 42.1387 315.937 42.624C315.116 43.0907 314.463 43.7533 313.977 44.612C313.492 45.4707 313.249 46.4787 313.249 47.636C313.249 48.7747 313.492 49.7827 313.977 50.66C314.463 51.5187 315.116 52.1907 315.937 52.676C316.759 53.1427 317.683 53.376 318.709 53.376ZM329.656 55V34.224H331.644V55H329.656ZM349.264 55.14C347.845 55.14 346.566 54.8227 345.428 54.188C344.308 53.5347 343.421 52.648 342.768 51.528C342.114 50.3893 341.788 49.092 341.788 47.636C341.788 46.1613 342.114 44.864 342.768 43.744C343.421 42.624 344.308 41.7467 345.428 41.112C346.548 40.4773 347.826 40.16 349.264 40.16C350.72 40.16 352.008 40.4773 353.128 41.112C354.266 41.7467 355.153 42.624 355.788 43.744C356.441 44.864 356.768 46.1613 356.768 47.636C356.768 49.092 356.441 50.3893 355.788 51.528C355.153 52.648 354.266 53.5347 353.128 54.188C351.989 54.8227 350.701 55.14 349.264 55.14ZM349.264 53.376C350.328 53.376 351.27 53.1427 352.092 52.676C352.913 52.1907 353.557 51.5187 354.024 50.66C354.509 49.7827 354.752 48.7747 354.752 47.636C354.752 46.4787 354.509 45.4707 354.024 44.612C353.557 43.7533 352.913 43.0907 352.092 42.624C351.27 42.1387 350.337 41.896 349.292 41.896C348.246 41.896 347.313 42.1387 346.492 42.624C345.67 43.0907 345.017 43.7533 344.532 44.612C344.046 45.4707 343.804 46.4787 343.804 47.636C343.804 48.7747 344.046 49.7827 344.532 50.66C345.017 51.5187 345.67 52.1907 346.492 52.676C347.313 53.1427 348.237 53.376 349.264 53.376ZM360.546 55V38.452C360.546 37.1453 360.929 36.0907 361.694 35.288C362.46 34.4853 363.561 34.084 364.998 34.084C365.558 34.084 366.1 34.1587 366.622 34.308C367.145 34.4573 367.584 34.6907 367.938 35.008L367.266 36.492C366.986 36.2493 366.66 36.072 366.286 35.96C365.913 35.8293 365.512 35.764 365.082 35.764C364.242 35.764 363.598 35.9973 363.15 36.464C362.702 36.9307 362.478 37.6213 362.478 38.536V40.776L362.534 41.7V55H360.546ZM357.914 41.952V40.3H367.014V41.952H357.914ZM381.899 55.14C380.443 55.14 379.136 54.8227 377.979 54.188C376.84 53.5347 375.944 52.648 375.291 51.528C374.637 50.3893 374.311 49.092 374.311 47.636C374.311 46.1613 374.637 44.864 375.291 43.744C375.944 42.624 376.84 41.7467 377.979 41.112C379.136 40.4773 380.443 40.16 381.899 40.16C383.149 40.16 384.279 40.4027 385.287 40.888C386.295 41.3733 387.088 42.1013 387.667 43.072L386.183 44.08C385.679 43.3333 385.053 42.7827 384.307 42.428C383.56 42.0733 382.748 41.896 381.871 41.896C380.825 41.896 379.883 42.1387 379.043 42.624C378.203 43.0907 377.54 43.7533 377.055 44.612C376.569 45.4707 376.327 46.4787 376.327 47.636C376.327 48.7933 376.569 49.8013 377.055 50.66C377.54 51.5187 378.203 52.1907 379.043 52.676C379.883 53.1427 380.825 53.376 381.871 53.376C382.748 53.376 383.56 53.1987 384.307 52.844C385.053 52.4893 385.679 51.948 386.183 51.22L387.667 52.228C387.088 53.18 386.295 53.908 385.287 54.412C384.279 54.8973 383.149 55.14 381.899 55.14ZM396.702 55.14C395.283 55.14 394.005 54.8227 392.866 54.188C391.746 53.5347 390.859 52.648 390.206 51.528C389.553 50.3893 389.226 49.092 389.226 47.636C389.226 46.1613 389.553 44.864 390.206 43.744C390.859 42.624 391.746 41.7467 392.866 41.112C393.986 40.4773 395.265 40.16 396.702 40.16C398.158 40.16 399.446 40.4773 400.566 41.112C401.705 41.7467 402.591 42.624 403.226 43.744C403.879 44.864 404.206 46.1613 404.206 47.636C404.206 49.092 403.879 50.3893 403.226 51.528C402.591 52.648 401.705 53.5347 400.566 54.188C399.427 54.8227 398.139 55.14 396.702 55.14ZM396.702 53.376C397.766 53.376 398.709 53.1427 399.53 52.676C400.351 52.1907 400.995 51.5187 401.462 50.66C401.947 49.7827 402.19 48.7747 402.19 47.636C402.19 46.4787 401.947 45.4707 401.462 44.612C400.995 43.7533 400.351 43.0907 399.53 42.624C398.709 42.1387 397.775 41.896 396.73 41.896C395.685 41.896 394.751 42.1387 393.93 42.624C393.109 43.0907 392.455 43.7533 391.97 44.612C391.485 45.4707 391.242 46.4787 391.242 47.636C391.242 48.7747 391.485 49.7827 391.97 50.66C392.455 51.5187 393.109 52.1907 393.93 52.676C394.751 53.1427 395.675 53.376 396.702 53.376ZM413.501 55.14C412.101 55.14 410.841 54.8227 409.721 54.188C408.619 53.5533 407.751 52.676 407.117 51.556C406.482 50.4173 406.165 49.1107 406.165 47.636C406.165 46.1427 406.482 44.836 407.117 43.716C407.751 42.596 408.619 41.728 409.721 41.112C410.841 40.4773 412.101 40.16 413.501 40.16C414.789 40.16 415.937 40.4493 416.945 41.028C417.971 41.6067 418.783 42.456 419.381 43.576C419.997 44.6773 420.305 46.0307 420.305 47.636C420.305 49.2227 420.006 50.576 419.409 51.696C418.811 52.816 417.999 53.6747 416.973 54.272C415.965 54.8507 414.807 55.14 413.501 55.14ZM413.641 53.376C414.686 53.376 415.619 53.1427 416.441 52.676C417.281 52.1907 417.934 51.5187 418.401 50.66C418.886 49.7827 419.129 48.7747 419.129 47.636C419.129 46.4787 418.886 45.4707 418.401 44.612C417.934 43.7533 417.281 43.0907 416.441 42.624C415.619 42.1387 414.686 41.896 413.641 41.896C412.614 41.896 411.69 42.1387 410.869 42.624C410.047 43.0907 409.394 43.7533 408.909 44.612C408.423 45.4707 408.181 46.4787 408.181 47.636C408.181 48.7747 408.423 49.7827 408.909 50.66C409.394 51.5187 410.047 52.1907 410.869 52.676C411.69 53.1427 412.614 53.376 413.641 53.376ZM419.185 55V50.576L419.381 47.608L419.101 44.64V34.224H421.089V55H419.185ZM432.253 55.14C430.723 55.14 429.379 54.8227 428.221 54.188C427.064 53.5347 426.159 52.648 425.505 51.528C424.852 50.3893 424.525 49.092 424.525 47.636C424.525 46.18 424.833 44.892 425.449 43.772C426.084 42.652 426.943 41.7747 428.025 41.14C429.127 40.4867 430.359 40.16 431.721 40.16C433.103 40.16 434.325 40.4773 435.389 41.112C436.472 41.728 437.321 42.6053 437.937 43.744C438.553 44.864 438.861 46.1613 438.861 47.636C438.861 47.7293 438.852 47.832 438.833 47.944C438.833 48.0373 438.833 48.14 438.833 48.252H426.037V46.768H437.769L436.985 47.356C436.985 46.292 436.752 45.3493 436.285 44.528C435.837 43.688 435.221 43.0347 434.437 42.568C433.653 42.1013 432.748 41.868 431.721 41.868C430.713 41.868 429.808 42.1013 429.005 42.568C428.203 43.0347 427.577 43.688 427.129 44.528C426.681 45.368 426.457 46.3293 426.457 47.412V47.72C426.457 48.84 426.7 49.8293 427.185 50.688C427.689 51.528 428.38 52.1907 429.257 52.676C430.153 53.1427 431.171 53.376 432.309 53.376C433.205 53.376 434.036 53.2173 434.801 52.9C435.585 52.5827 436.257 52.0973 436.817 51.444L437.937 52.732C437.284 53.516 436.463 54.1133 435.473 54.524C434.503 54.9347 433.429 55.14 432.253 55.14ZM14.528 69.4H16.572V89H14.528V69.4ZM2.264 89H0.192V69.4H2.264V89ZM14.724 79.956H2.04V78.136H14.724V79.956ZM28.1773 89.14C26.6467 89.14 25.3027 88.8227 24.1453 88.188C22.988 87.5347 22.0827 86.648 21.4293 85.528C20.776 84.3893 20.4493 83.092 20.4493 81.636C20.4493 80.18 20.7573 78.892 21.3733 77.772C22.008 76.652 22.8667 75.7747 23.9493 75.14C25.0507 74.4867 26.2827 74.16 27.6453 74.16C29.0267 74.16 30.2493 74.4773 31.3133 75.112C32.396 75.728 33.2453 76.6053 33.8613 77.744C34.4773 78.864 34.7853 80.1613 34.7853 81.636C34.7853 81.7293 34.776 81.832 34.7573 81.944C34.7573 82.0373 34.7573 82.14 34.7573 82.252H21.9613V80.768H33.6933L32.9093 81.356C32.9093 80.292 32.676 79.3493 32.2093 78.528C31.7613 77.688 31.1453 77.0347 30.3613 76.568C29.5773 76.1013 28.672 75.868 27.6453 75.868C26.6373 75.868 25.732 76.1013 24.9293 76.568C24.1267 77.0347 23.5013 77.688 23.0533 78.528C22.6053 79.368 22.3813 80.3293 22.3813 81.412V81.72C22.3813 82.84 22.624 83.8293 23.1093 84.688C23.6133 85.528 24.304 86.1907 25.1813 86.676C26.0773 87.1427 27.0947 87.376 28.2333 87.376C29.1293 87.376 29.96 87.2173 30.7253 86.9C31.5093 86.5827 32.1813 86.0973 32.7413 85.444L33.8613 86.732C33.208 87.516 32.3867 88.1133 31.3973 88.524C30.4267 88.9347 29.3533 89.14 28.1773 89.14ZM38.2158 89V74.3H40.1198V78.304L39.9238 77.604C40.3344 76.484 41.0251 75.6347 41.9958 75.056C42.9664 74.4587 44.1704 74.16 45.6078 74.16V76.092C45.5331 76.092 45.4585 76.092 45.3838 76.092C45.3091 76.0733 45.2344 76.064 45.1598 76.064C43.6104 76.064 42.3971 76.54 41.5198 77.492C40.6424 78.4253 40.2038 79.76 40.2038 81.496V89H38.2158ZM54.7266 89.14C53.1959 89.14 51.8519 88.8227 50.6946 88.188C49.5373 87.5347 48.6319 86.648 47.9786 85.528C47.3253 84.3893 46.9986 83.092 46.9986 81.636C46.9986 80.18 47.3066 78.892 47.9226 77.772C48.5573 76.652 49.4159 75.7747 50.4986 75.14C51.5999 74.4867 52.8319 74.16 54.1946 74.16C55.5759 74.16 56.7986 74.4773 57.8626 75.112C58.9453 75.728 59.7946 76.6053 60.4106 77.744C61.0266 78.864 61.3346 80.1613 61.3346 81.636C61.3346 81.7293 61.3253 81.832 61.3066 81.944C61.3066 82.0373 61.3066 82.14 61.3066 82.252H48.5106V80.768H60.2426L59.4586 81.356C59.4586 80.292 59.2253 79.3493 58.7586 78.528C58.3106 77.688 57.6946 77.0347 56.9106 76.568C56.1266 76.1013 55.2213 75.868 54.1946 75.868C53.1866 75.868 52.2813 76.1013 51.4786 76.568C50.6759 77.0347 50.0506 77.688 49.6026 78.528C49.1546 79.368 48.9306 80.3293 48.9306 81.412V81.72C48.9306 82.84 49.1733 83.8293 49.6586 84.688C50.1626 85.528 50.8533 86.1907 51.7306 86.676C52.6266 87.1427 53.6439 87.376 54.7826 87.376C55.6786 87.376 56.5093 87.2173 57.2746 86.9C58.0586 86.5827 58.7306 86.0973 59.2906 85.444L60.4106 86.732C59.7573 87.516 58.9359 88.1133 57.9466 88.524C56.9759 88.9347 55.9026 89.14 54.7266 89.14ZM76.1252 89.14C74.7438 89.14 73.6798 88.7667 72.9332 88.02C72.1865 87.2733 71.8132 86.2187 71.8132 84.856V71.052H73.8012V84.744C73.8012 85.6027 74.0158 86.2653 74.4452 86.732C74.8932 87.1987 75.5278 87.432 76.3492 87.432C77.2265 87.432 77.9545 87.18 78.5332 86.676L79.2332 88.104C78.8412 88.4587 78.3652 88.72 77.8052 88.888C77.2638 89.056 76.7038 89.14 76.1252 89.14ZM69.1812 75.952V74.3H78.2812V75.952H69.1812ZM87.7086 89.14C86.29 89.14 85.0113 88.8227 83.8726 88.188C82.7526 87.5347 81.866 86.648 81.2126 85.528C80.5593 84.3893 80.2326 83.092 80.2326 81.636C80.2326 80.1613 80.5593 78.864 81.2126 77.744C81.866 76.624 82.7526 75.7467 83.8726 75.112C84.9926 74.4773 86.2713 74.16 87.7086 74.16C89.1646 74.16 90.4526 74.4773 91.5726 75.112C92.7113 75.7467 93.598 76.624 94.2326 77.744C94.886 78.864 95.2126 80.1613 95.2126 81.636C95.2126 83.092 94.886 84.3893 94.2326 85.528C93.598 86.648 92.7113 87.5347 91.5726 88.188C90.434 88.8227 89.146 89.14 87.7086 89.14ZM87.7086 87.376C88.7726 87.376 89.7153 87.1427 90.5366 86.676C91.358 86.1907 92.002 85.5187 92.4686 84.66C92.954 83.7827 93.1966 82.7747 93.1966 81.636C93.1966 80.4787 92.954 79.4707 92.4686 78.612C92.002 77.7533 91.358 77.0907 90.5366 76.624C89.7153 76.1387 88.782 75.896 87.7366 75.896C86.6913 75.896 85.758 76.1387 84.9366 76.624C84.1153 77.0907 83.462 77.7533 82.9766 78.612C82.4913 79.4707 82.2486 80.4787 82.2486 81.636C82.2486 82.7747 82.4913 83.7827 82.9766 84.66C83.462 85.5187 84.1153 86.1907 84.9366 86.676C85.758 87.1427 86.682 87.376 87.7086 87.376ZM112.955 89.14C111.667 89.14 110.51 88.8507 109.483 88.272C108.457 87.6747 107.645 86.816 107.047 85.696C106.45 84.576 106.151 83.2227 106.151 81.636C106.151 80.0307 106.45 78.6773 107.047 77.576C107.663 76.456 108.485 75.6067 109.511 75.028C110.538 74.4493 111.686 74.16 112.955 74.16C114.355 74.16 115.606 74.4773 116.707 75.112C117.827 75.728 118.705 76.596 119.339 77.716C119.974 78.836 120.291 80.1427 120.291 81.636C120.291 83.1107 119.974 84.4173 119.339 85.556C118.705 86.676 117.827 87.5533 116.707 88.188C115.606 88.8227 114.355 89.14 112.955 89.14ZM105.367 89V68.224H107.355V78.64L107.075 81.608L107.271 84.576V89H105.367ZM112.815 87.376C113.861 87.376 114.794 87.1427 115.615 86.676C116.437 86.1907 117.09 85.5187 117.575 84.66C118.061 83.7827 118.303 82.7747 118.303 81.636C118.303 80.4787 118.061 79.4707 117.575 78.612C117.09 77.7533 116.437 77.0907 115.615 76.624C114.794 76.1387 113.861 75.896 112.815 75.896C111.77 75.896 110.827 76.1387 109.987 76.624C109.166 77.0907 108.513 77.7533 108.027 78.612C107.561 79.4707 107.327 80.4787 107.327 81.636C107.327 82.7747 107.561 83.7827 108.027 84.66C108.513 85.5187 109.166 86.1907 109.987 86.676C110.827 87.1427 111.77 87.376 112.815 87.376ZM129.804 89.14C128.553 89.14 127.461 88.9067 126.528 88.44C125.595 87.9733 124.867 87.2733 124.344 86.34C123.84 85.4067 123.588 84.24 123.588 82.84V74.3H125.576V82.616C125.576 84.184 125.959 85.3693 126.724 86.172C127.508 86.956 128.6 87.348 130 87.348C131.027 87.348 131.913 87.1427 132.66 86.732C133.425 86.3027 134.004 85.6867 134.396 84.884C134.807 84.0813 135.012 83.12 135.012 82V74.3H137V89H135.096V84.968L135.404 85.696C134.937 86.7787 134.209 87.628 133.22 88.244C132.249 88.8413 131.111 89.14 129.804 89.14ZM141.924 89V74.3H143.912V89H141.924ZM142.932 71.052C142.522 71.052 142.176 70.912 141.896 70.632C141.616 70.352 141.476 70.016 141.476 69.624C141.476 69.232 141.616 68.9053 141.896 68.644C142.176 68.364 142.522 68.224 142.932 68.224C143.343 68.224 143.688 68.3547 143.968 68.616C144.248 68.8773 144.388 69.204 144.388 69.596C144.388 70.0067 144.248 70.352 143.968 70.632C143.707 70.912 143.362 71.052 142.932 71.052ZM148.828 89V68.224H150.816V89H148.828ZM161.584 89.14C160.184 89.14 158.924 88.8227 157.804 88.188C156.702 87.5533 155.834 86.676 155.2 85.556C154.565 84.4173 154.248 83.1107 154.248 81.636C154.248 80.1427 154.565 78.836 155.2 77.716C155.834 76.596 156.702 75.728 157.804 75.112C158.924 74.4773 160.184 74.16 161.584 74.16C162.872 74.16 164.02 74.4493 165.028 75.028C166.054 75.6067 166.866 76.456 167.464 77.576C168.08 78.6773 168.388 80.0307 168.388 81.636C168.388 83.2227 168.089 84.576 167.492 85.696C166.894 86.816 166.082 87.6747 165.056 88.272C164.048 88.8507 162.89 89.14 161.584 89.14ZM161.724 87.376C162.769 87.376 163.702 87.1427 164.524 86.676C165.364 86.1907 166.017 85.5187 166.484 84.66C166.969 83.7827 167.212 82.7747 167.212 81.636C167.212 80.4787 166.969 79.4707 166.484 78.612C166.017 77.7533 165.364 77.0907 164.524 76.624C163.702 76.1387 162.769 75.896 161.724 75.896C160.697 75.896 159.773 76.1387 158.952 76.624C158.13 77.0907 157.477 77.7533 156.992 78.612C156.506 79.4707 156.264 80.4787 156.264 81.636C156.264 82.7747 156.506 83.7827 156.992 84.66C157.477 85.5187 158.13 86.1907 158.952 86.676C159.773 87.1427 160.697 87.376 161.724 87.376ZM167.268 89V84.576L167.464 81.608L167.184 78.64V68.224H169.172V89H167.268ZM180.916 94.572C180.226 94.572 179.563 94.46 178.928 94.236C178.312 94.012 177.78 93.676 177.332 93.228L178.256 91.744C178.63 92.0987 179.031 92.3693 179.46 92.556C179.908 92.7613 180.403 92.864 180.944 92.864C181.598 92.864 182.158 92.6773 182.624 92.304C183.11 91.9493 183.567 91.3147 183.996 90.4L184.948 88.244L185.172 87.936L191.22 74.3H193.18L185.816 90.764C185.406 91.716 184.948 92.472 184.444 93.032C183.959 93.592 183.427 93.984 182.848 94.208C182.27 94.4507 181.626 94.572 180.916 94.572ZM184.836 89.42L178.06 74.3H180.132L186.124 87.796L184.836 89.42ZM200.946 89.14C199.527 89.14 198.249 88.8227 197.11 88.188C195.99 87.5347 195.103 86.648 194.45 85.528C193.797 84.3893 193.47 83.092 193.47 81.636C193.47 80.1613 193.797 78.864 194.45 77.744C195.103 76.624 195.99 75.7467 197.11 75.112C198.23 74.4773 199.509 74.16 200.946 74.16C202.402 74.16 203.69 74.4773 204.81 75.112C205.949 75.7467 206.835 76.624 207.47 77.744C208.123 78.864 208.45 80.1613 208.45 81.636C208.45 83.092 208.123 84.3893 207.47 85.528C206.835 86.648 205.949 87.5347 204.81 88.188C203.671 88.8227 202.383 89.14 200.946 89.14ZM200.946 87.376C202.01 87.376 202.953 87.1427 203.774 86.676C204.595 86.1907 205.239 85.5187 205.706 84.66C206.191 83.7827 206.434 82.7747 206.434 81.636C206.434 80.4787 206.191 79.4707 205.706 78.612C205.239 77.7533 204.595 77.0907 203.774 76.624C202.953 76.1387 202.019 75.896 200.974 75.896C199.929 75.896 198.995 76.1387 198.174 76.624C197.353 77.0907 196.699 77.7533 196.214 78.612C195.729 79.4707 195.486 80.4787 195.486 81.636C195.486 82.7747 195.729 83.7827 196.214 84.66C196.699 85.5187 197.353 86.1907 198.174 86.676C198.995 87.1427 199.919 87.376 200.946 87.376ZM217.969 89.14C216.718 89.14 215.626 88.9067 214.693 88.44C213.759 87.9733 213.031 87.2733 212.509 86.34C212.005 85.4067 211.753 84.24 211.753 82.84V74.3H213.741V82.616C213.741 84.184 214.123 85.3693 214.889 86.172C215.673 86.956 216.765 87.348 218.165 87.348C219.191 87.348 220.078 87.1427 220.825 86.732C221.59 86.3027 222.169 85.6867 222.561 84.884C222.971 84.0813 223.177 83.12 223.177 82V74.3H225.165V89H223.261V84.968L223.569 85.696C223.102 86.7787 222.374 87.628 221.385 88.244C220.414 88.8413 219.275 89.14 217.969 89.14ZM230.089 89V74.3H231.993V78.304L231.797 77.604C232.208 76.484 232.898 75.6347 233.869 75.056C234.84 74.4587 236.044 74.16 237.481 74.16V76.092C237.406 76.092 237.332 76.092 237.257 76.092C237.182 76.0733 237.108 76.064 237.033 76.064C235.484 76.064 234.27 76.54 233.393 77.492C232.516 78.4253 232.077 79.76 232.077 81.496V89H230.089ZM250.419 89L244.875 74.3H246.779L251.819 87.936H250.951L256.131 74.3H257.839L262.963 87.936H262.095L267.219 74.3H269.039L263.467 89H261.591L256.663 76.176H257.251L252.295 89H250.419ZM277.251 89.14C275.72 89.14 274.376 88.8227 273.219 88.188C272.061 87.5347 271.156 86.648 270.503 85.528C269.849 84.3893 269.523 83.092 269.523 81.636C269.523 80.18 269.831 78.892 270.447 77.772C271.081 76.652 271.94 75.7747 273.023 75.14C274.124 74.4867 275.356 74.16 276.719 74.16C278.1 74.16 279.323 74.4773 280.387 75.112C281.469 75.728 282.319 76.6053 282.935 77.744C283.551 78.864 283.859 80.1613 283.859 81.636C283.859 81.7293 283.849 81.832 283.831 81.944C283.831 82.0373 283.831 82.14 283.831 82.252H271.035V80.768H282.767L281.983 81.356C281.983 80.292 281.749 79.3493 281.283 78.528C280.835 77.688 280.219 77.0347 279.435 76.568C278.651 76.1013 277.745 75.868 276.719 75.868C275.711 75.868 274.805 76.1013 274.003 76.568C273.2 77.0347 272.575 77.688 272.127 78.528C271.679 79.368 271.455 80.3293 271.455 81.412V81.72C271.455 82.84 271.697 83.8293 272.183 84.688C272.687 85.528 273.377 86.1907 274.255 86.676C275.151 87.1427 276.168 87.376 277.307 87.376C278.203 87.376 279.033 87.2173 279.799 86.9C280.583 86.5827 281.255 86.0973 281.815 85.444L282.935 86.732C282.281 87.516 281.46 88.1133 280.471 88.524C279.5 88.9347 278.427 89.14 277.251 89.14ZM294.877 89.14C293.589 89.14 292.432 88.8507 291.405 88.272C290.378 87.6747 289.566 86.816 288.969 85.696C288.372 84.576 288.073 83.2227 288.073 81.636C288.073 80.0307 288.372 78.6773 288.969 77.576C289.585 76.456 290.406 75.6067 291.433 75.028C292.46 74.4493 293.608 74.16 294.877 74.16C296.277 74.16 297.528 74.4773 298.629 75.112C299.749 75.728 300.626 76.596 301.261 77.716C301.896 78.836 302.213 80.1427 302.213 81.636C302.213 83.1107 301.896 84.4173 301.261 85.556C300.626 86.676 299.749 87.5533 298.629 88.188C297.528 88.8227 296.277 89.14 294.877 89.14ZM287.289 89V68.224H289.277V78.64L288.997 81.608L289.193 84.576V89H287.289ZM294.737 87.376C295.782 87.376 296.716 87.1427 297.537 86.676C298.358 86.1907 299.012 85.5187 299.497 84.66C299.982 83.7827 300.225 82.7747 300.225 81.636C300.225 80.4787 299.982 79.4707 299.497 78.612C299.012 77.7533 298.358 77.0907 297.537 76.624C296.716 76.1387 295.782 75.896 294.737 75.896C293.692 75.896 292.749 76.1387 291.909 76.624C291.088 77.0907 290.434 77.7533 289.949 78.612C289.482 79.4707 289.249 80.4787 289.249 81.636C289.249 82.7747 289.482 83.7827 289.949 84.66C290.434 85.5187 291.088 86.1907 291.909 86.676C292.749 87.1427 293.692 87.376 294.737 87.376ZM309.598 89.14C308.384 89.14 307.236 88.972 306.154 88.636C305.071 88.2813 304.222 87.8427 303.606 87.32L304.502 85.752C305.099 86.2 305.864 86.592 306.798 86.928C307.731 87.2453 308.711 87.404 309.738 87.404C311.138 87.404 312.146 87.1893 312.762 86.76C313.378 86.312 313.686 85.724 313.686 84.996C313.686 84.4547 313.508 84.0347 313.154 83.736C312.818 83.4187 312.37 83.1853 311.81 83.036C311.25 82.868 310.624 82.728 309.934 82.616C309.243 82.504 308.552 82.3733 307.862 82.224C307.19 82.0747 306.574 81.86 306.014 81.58C305.454 81.2813 304.996 80.88 304.642 80.376C304.306 79.872 304.138 79.2 304.138 78.36C304.138 77.5573 304.362 76.8387 304.81 76.204C305.258 75.5693 305.911 75.0747 306.77 74.72C307.647 74.3467 308.711 74.16 309.962 74.16C310.914 74.16 311.866 74.2907 312.818 74.552C313.77 74.7947 314.554 75.1213 315.17 75.532L314.302 77.128C313.648 76.68 312.948 76.3627 312.202 76.176C311.455 75.9707 310.708 75.868 309.962 75.868C308.636 75.868 307.656 76.1013 307.022 76.568C306.406 77.016 306.098 77.5947 306.098 78.304C306.098 78.864 306.266 79.3027 306.602 79.62C306.956 79.9373 307.414 80.1893 307.974 80.376C308.552 80.544 309.178 80.684 309.85 80.796C310.54 80.908 311.222 81.048 311.894 81.216C312.584 81.3653 313.21 81.58 313.77 81.86C314.348 82.1213 314.806 82.504 315.142 83.008C315.496 83.4933 315.674 84.1373 315.674 84.94C315.674 85.7987 315.431 86.5453 314.946 87.18C314.479 87.796 313.788 88.2813 312.874 88.636C311.978 88.972 310.886 89.14 309.598 89.14ZM318.706 89V74.3H320.694V89H318.706ZM319.714 71.052C319.303 71.052 318.958 70.912 318.678 70.632C318.398 70.352 318.258 70.016 318.258 69.624C318.258 69.232 318.398 68.9053 318.678 68.644C318.958 68.364 319.303 68.224 319.714 68.224C320.124 68.224 320.47 68.3547 320.75 68.616C321.03 68.8773 321.17 69.204 321.17 69.596C321.17 70.0067 321.03 70.352 320.75 70.632C320.488 70.912 320.143 71.052 319.714 71.052ZM330.257 89.14C328.876 89.14 327.812 88.7667 327.065 88.02C326.318 87.2733 325.945 86.2187 325.945 84.856V71.052H327.933V84.744C327.933 85.6027 328.148 86.2653 328.577 86.732C329.025 87.1987 329.66 87.432 330.481 87.432C331.358 87.432 332.086 87.18 332.665 86.676L333.365 88.104C332.973 88.4587 332.497 88.72 331.937 88.888C331.396 89.056 330.836 89.14 330.257 89.14ZM323.313 75.952V74.3H332.413V75.952H323.313ZM342.093 89.14C340.562 89.14 339.218 88.8227 338.061 88.188C336.903 87.5347 335.998 86.648 335.345 85.528C334.691 84.3893 334.365 83.092 334.365 81.636C334.365 80.18 334.673 78.892 335.289 77.772C335.923 76.652 336.782 75.7747 337.865 75.14C338.966 74.4867 340.198 74.16 341.561 74.16C342.942 74.16 344.165 74.4773 345.229 75.112C346.311 75.728 347.161 76.6053 347.777 77.744C348.393 78.864 348.701 80.1613 348.701 81.636C348.701 81.7293 348.691 81.832 348.673 81.944C348.673 82.0373 348.673 82.14 348.673 82.252H335.877V80.768H347.609L346.825 81.356C346.825 80.292 346.591 79.3493 346.125 78.528C345.677 77.688 345.061 77.0347 344.277 76.568C343.493 76.1013 342.587 75.868 341.561 75.868C340.553 75.868 339.647 76.1013 338.845 76.568C338.042 77.0347 337.417 77.688 336.969 78.528C336.521 79.368 336.297 80.3293 336.297 81.412V81.72C336.297 82.84 336.539 83.8293 337.025 84.688C337.529 85.528 338.219 86.1907 339.097 86.676C339.993 87.1427 341.01 87.376 342.149 87.376C343.045 87.376 343.875 87.2173 344.641 86.9C345.425 86.5827 346.097 86.0973 346.657 85.444L347.777 86.732C347.123 87.516 346.302 88.1133 345.313 88.524C344.342 88.9347 343.269 89.14 342.093 89.14Z"/></g><defs><filter id="filter0_i_541_1295" width="438.669" height="98.349" x=".192" y=".224" color-interpolation-filters="sRGB" filterUnits="userSpaceOnUse"><feFlood flood-opacity="0" result="BackgroundImageFix"/><feBlend in="SourceGraphic" in2="BackgroundImageFix" mode="normal" result="shape"/><feColorMatrix in="SourceAlpha" result="hardAlpha" type="matrix" values="0 0 0 0 0 0 0 0 0 0 0 0 0 0 0 0 0 0 127 0"/><feOffset dy="4"/><feGaussianBlur stdDeviation="2"/><feComposite in2="hardAlpha" k2="-1" k3="1" operator="arithmetic"/><feColorMatrix type="matrix" values="0 0 0 0 0 0 0 0 0 0 0 0 0 0 0 0 0 0 0.25 0"/><feBlend in2="shape" mode="normal" result="effect1_innerShadow_541_1295"/></filter></defs></svg>