<svg width="85" height="70" viewBox="0 0 85 70" fill="none" xmlns="http://www.w3.org/2000/svg">
<path  d="M26.4648 42.6113V13.3438H36.7188V42.6113C36.7188 45.4629 36.0645 47.9336 34.7559 50.0234C33.4668 52.1133 31.709 53.7344 29.4824 54.8867C27.2754 56.0195 24.7949 56.5859 22.041 56.5859C19.1895 56.5859 16.6504 56.1074 14.4238 55.1504C12.2168 54.1934 10.4785 52.7188 9.20898 50.7266C7.95898 48.7344 7.33398 46.1953 7.33398 43.1094H17.6465C17.6465 44.5547 17.8125 45.6875 18.1445 46.5078C18.4766 47.3086 18.9648 47.875 19.6094 48.207C20.2734 48.5195 21.084 48.6758 22.041 48.6758C22.9785 48.6758 23.7695 48.4414 24.4141 47.9727C25.0781 47.4844 25.5859 46.791 25.9375 45.8926C26.2891 44.9746 26.4648 43.8809 26.4648 42.6113ZM71.4355 48.0898V56H49.873V48.0898H71.4355ZM53.5352 13.3438V56H43.252V13.3438H53.5352Z" fill="#E8E5E2" />
<path d="M18.084 24.832C18.128 24.8613 18.1353 24.9053 18.106 24.964C18.0913 25.0227 18.0547 25.0887 17.996 25.162C17.952 25.2353 17.8933 25.3087 17.82 25.382C17.7467 25.4553 17.6807 25.5067 17.622 25.536C17.314 25.624 17.028 25.756 16.764 25.932C16.5147 26.108 16.28 26.3647 16.06 26.702C15.84 27.0393 15.6273 27.472 15.422 28C15.2313 28.5133 15.0407 29.1513 14.85 29.914C14.6007 30.882 14.3293 31.784 14.036 32.62C13.7427 33.456 13.4273 34.248 13.09 34.996C13.266 34.9667 13.4347 34.9227 13.596 34.864C13.7573 34.7907 13.882 34.7247 13.97 34.666C14.0727 34.666 14.102 34.7173 14.058 34.82C13.794 35.0107 13.442 35.1427 13.002 35.216C12.3713 36.5653 11.6747 37.7313 10.912 38.714C10.1493 39.6967 9.34267 40.5107 8.492 41.156C7.64133 41.8013 6.74667 42.278 5.808 42.586C4.884 42.9087 3.938 43.07 2.97 43.07C1.958 43.07 1.21 42.828 0.726 42.344C0.242 41.8747 0 41.288 0 40.584C0 40.0267 0.154 39.4473 0.462 38.846C0.77 38.2447 1.188 37.68 1.716 37.152C2.25867 36.624 2.89667 36.162 3.63 35.766C4.378 35.37 5.192 35.0913 6.072 34.93C6.14533 34.93 6.182 34.9593 6.182 35.018C6.182 35.0767 6.14533 35.1207 6.072 35.15C5.29467 35.2967 4.58333 35.5387 3.938 35.876C3.29267 36.1987 2.73533 36.58 2.266 37.02C1.79667 37.46 1.43 37.9367 1.166 38.45C0.902 38.9633 0.77 39.484 0.77 40.012C0.77 40.7453 0.99 41.332 1.43 41.772C1.88467 42.2267 2.64733 42.454 3.718 42.454C4.58333 42.454 5.412 42.322 6.204 42.058C7.01067 41.794 7.77333 41.376 8.492 40.804C9.21067 40.232 9.88533 39.4913 10.516 38.582C11.1613 37.6727 11.7627 36.5727 12.32 35.282C11.5427 35.2527 10.912 34.9813 10.428 34.468C9.95867 33.94 9.724 33.236 9.724 32.356C9.724 31.4467 9.944 30.5447 10.384 29.65C10.824 28.7553 11.418 27.9487 12.166 27.23C12.9287 26.5113 13.816 25.932 14.828 25.492C15.8547 25.052 16.94 24.832 18.084 24.832ZM13.926 30.398C14.2487 29.122 14.6373 28.1027 15.092 27.34C15.5467 26.5773 16.0747 26.02 16.676 25.668C15.664 25.8 14.7473 26.086 13.926 26.526C13.1047 26.966 12.4007 27.5013 11.814 28.132C11.242 28.748 10.7947 29.4227 10.472 30.156C10.164 30.8747 10.01 31.5787 10.01 32.268C10.01 33.1187 10.2227 33.786 10.648 34.27C11.0733 34.754 11.66 35.018 12.408 35.062C12.9507 33.7273 13.4567 32.1727 13.926 30.398ZM17.5074 33.368C17.9034 33.368 18.1967 33.5 18.3874 33.764C18.578 34.028 18.6734 34.3727 18.6734 34.798C18.6734 35.2967 18.578 35.7953 18.3874 36.294C18.1967 36.7927 17.9547 37.2473 17.6614 37.658C17.368 38.054 17.0454 38.3767 16.6934 38.626C16.356 38.8753 16.0407 39 15.7474 39C15.3954 39 15.1167 38.8607 14.9114 38.582C14.706 38.3033 14.6034 37.9073 14.6034 37.394C14.6034 36.9833 14.684 36.5433 14.8454 36.074C15.0067 35.6047 15.2194 35.172 15.4834 34.776C15.762 34.3653 16.07 34.028 16.4074 33.764C16.7594 33.5 17.126 33.368 17.5074 33.368ZM16.1874 38.318C16.4074 38.318 16.62 38.2447 16.8254 38.098C17.0454 37.9367 17.236 37.7313 17.3974 37.482C17.5587 37.218 17.6834 36.9173 17.7714 36.58C17.874 36.2427 17.9254 35.8907 17.9254 35.524C17.9254 35.084 17.852 34.7393 17.7054 34.49C17.5587 34.226 17.3167 34.094 16.9794 34.094C16.7594 34.094 16.5467 34.1747 16.3414 34.336C16.136 34.4827 15.9527 34.688 15.7914 34.952C15.6447 35.2013 15.5274 35.502 15.4394 35.854C15.3514 36.1913 15.3074 36.5507 15.3074 36.932C15.3074 37.856 15.6007 38.318 16.1874 38.318ZM21.5468 33.984C21.5468 34.204 21.5248 34.4607 21.4808 34.754C21.4368 35.0473 21.3781 35.3407 21.3048 35.634C21.5981 34.93 21.9208 34.38 22.2728 33.984C22.6248 33.5733 23.0061 33.368 23.4168 33.368C23.5781 33.368 23.7248 33.412 23.8568 33.5C23.9888 33.588 24.0548 33.7127 24.0548 33.874C24.0548 33.9913 24.0108 34.1453 23.9228 34.336C23.8348 34.512 23.7468 34.644 23.6588 34.732C23.5708 34.7907 23.5268 34.7687 23.5268 34.666C23.5268 34.4167 23.3581 34.292 23.0208 34.292C22.5074 34.292 22.0454 34.6807 21.6348 35.458C21.2241 36.2207 20.8354 37.284 20.4688 38.648C20.4394 38.7947 20.3368 38.89 20.1608 38.934C19.9994 38.978 19.8601 39 19.7428 39C19.5814 39 19.5448 38.9193 19.6328 38.758C19.7648 38.45 19.8894 38.12 20.0068 37.768C20.1241 37.4013 20.2341 37.0347 20.3368 36.668C20.4541 36.3013 20.5494 35.942 20.6228 35.59C20.6961 35.238 20.7548 34.9153 20.7988 34.622C20.8574 34.182 20.7841 33.962 20.5788 33.962C20.4614 33.962 20.3221 34.028 20.1608 34.16C20.0141 34.292 19.8748 34.446 19.7428 34.622C19.6841 34.6513 19.6328 34.6513 19.5888 34.622C19.5448 34.578 19.5374 34.5267 19.5668 34.468C19.7868 34.1893 20.0288 33.94 20.2928 33.72C20.5714 33.4853 20.8281 33.368 21.0628 33.368C21.3854 33.368 21.5468 33.5733 21.5468 33.984ZM36.4256 22.368C36.807 22.368 37.049 22.5147 37.1516 22.808C37.2543 23.1013 37.203 23.468 36.9976 23.908C36.8803 23.996 36.807 23.974 36.7776 23.842C36.807 23.6367 36.7483 23.4753 36.6016 23.358C36.455 23.2407 36.2496 23.182 35.9856 23.182C35.4576 23.182 34.9223 23.3653 34.3796 23.732C33.837 24.0987 33.309 24.612 32.7956 25.272C32.2823 25.9173 31.7836 26.68 31.2996 27.56C30.8156 28.44 30.3683 29.3933 29.9576 30.42C29.547 31.4467 29.173 32.5247 28.8356 33.654C28.513 34.7687 28.249 35.8907 28.0436 37.02C27.985 37.3573 27.9703 37.658 27.9996 37.922C28.029 38.1713 28.1316 38.296 28.3076 38.296C28.469 38.296 28.6303 38.2153 28.7916 38.054C28.953 37.878 29.0996 37.6873 29.2316 37.482C29.261 37.4527 29.2976 37.4527 29.3416 37.482C29.4003 37.5113 29.4223 37.5553 29.4076 37.614C29.3343 37.746 29.2316 37.8927 29.0996 38.054C28.9676 38.2153 28.821 38.3693 28.6596 38.516C28.513 38.648 28.359 38.7653 28.1976 38.868C28.0363 38.956 27.8896 39 27.7576 39C27.5083 39 27.3323 38.8973 27.2296 38.692C27.1416 38.472 27.1123 38.1933 27.1416 37.856C27.1563 37.6067 27.1856 37.372 27.2296 37.152C27.2736 36.932 27.325 36.6973 27.3836 36.448C27.2516 36.756 27.0756 37.0567 26.8556 37.35C26.6356 37.6287 26.4083 37.8853 26.1736 38.12C25.939 38.3547 25.7043 38.5527 25.4696 38.714C25.2496 38.8607 25.059 38.956 24.8976 39C24.6483 39 24.4063 38.8973 24.1716 38.692C23.9516 38.472 23.8416 38.1273 23.8416 37.658C23.8416 37.1007 23.937 36.5653 24.1276 36.052C24.3183 35.524 24.575 35.062 24.8976 34.666C25.235 34.27 25.6163 33.9547 26.0416 33.72C26.4816 33.4707 26.951 33.346 27.4496 33.346C27.611 33.346 27.7503 33.368 27.8676 33.412C27.9996 33.456 28.117 33.5147 28.2196 33.588C28.4836 32.796 28.799 31.9673 29.1656 31.102C29.547 30.2367 29.9576 29.3933 30.3976 28.572C30.8376 27.736 31.2996 26.944 31.7836 26.196C32.2823 25.448 32.7883 24.7953 33.3016 24.238C33.8296 23.666 34.3576 23.2113 34.8856 22.874C35.4136 22.5367 35.927 22.368 36.4256 22.368ZM25.2936 38.23C25.455 38.23 25.6456 38.142 25.8656 37.966C26.1003 37.7753 26.3276 37.5333 26.5476 37.24C26.7823 36.9467 27.0023 36.6093 27.2076 36.228C27.4276 35.832 27.611 35.4287 27.7576 35.018C27.8016 34.8713 27.8456 34.732 27.8896 34.6C27.9336 34.468 27.9703 34.336 27.9996 34.204C27.941 34.028 27.831 33.9033 27.6696 33.83C27.5083 33.742 27.325 33.698 27.1196 33.698C26.8116 33.698 26.511 33.7933 26.2176 33.984C25.9243 34.16 25.6603 34.4093 25.4256 34.732C25.2056 35.0547 25.0223 35.436 24.8756 35.876C24.7436 36.316 24.6776 36.8 24.6776 37.328C24.6776 37.636 24.7363 37.8633 24.8536 38.01C24.9856 38.1567 25.1323 38.23 25.2936 38.23ZM35.3951 37.614C35.4244 37.5847 35.4611 37.5847 35.5051 37.614C35.5491 37.6433 35.5637 37.6873 35.5491 37.746C35.2411 38.1713 34.9331 38.4867 34.6251 38.692C34.3317 38.8973 34.0824 39 33.8771 39C33.7451 39 33.6351 38.934 33.5471 38.802C33.4737 38.67 33.4224 38.494 33.3931 38.274C33.3784 38.0393 33.3857 37.7827 33.4151 37.504C33.4591 37.2107 33.5251 36.91 33.6131 36.602C33.2171 37.218 32.7991 37.7533 32.3591 38.208C31.9191 38.648 31.4937 38.912 31.0831 39C30.8191 39 30.5917 38.8753 30.4011 38.626C30.2251 38.362 30.1371 37.9587 30.1371 37.416C30.1371 36.932 30.2324 36.4553 30.4231 35.986C30.6284 35.502 30.8997 35.0693 31.2371 34.688C31.5744 34.292 31.9631 33.9767 32.4031 33.742C32.8431 33.5073 33.3051 33.39 33.7891 33.39C34.0531 33.39 34.2804 33.4193 34.4711 33.478C34.6617 33.5367 34.8377 33.6247 34.9991 33.742C35.0871 33.6687 35.2044 33.6027 35.3511 33.544C35.5124 33.4707 35.6591 33.434 35.7911 33.434C35.8644 33.434 35.8864 33.4707 35.8571 33.544C35.5197 33.9547 35.2264 34.4093 34.9771 34.908C34.7424 35.4067 34.5591 35.8907 34.4271 36.36C34.2951 36.8293 34.2071 37.2473 34.1631 37.614C34.1337 37.966 34.1631 38.208 34.2511 38.34C34.3244 38.4427 34.4564 38.45 34.6471 38.362C34.8377 38.2593 35.0871 38.01 35.3951 37.614ZM31.5671 38.252C31.7284 38.252 31.9337 38.142 32.1831 37.922C32.4471 37.6873 32.7184 37.3867 32.9971 37.02C33.2757 36.6533 33.5471 36.2427 33.8111 35.788C34.0897 35.3187 34.3317 34.8493 34.5371 34.38C34.4784 34.1893 34.3391 34.0353 34.1191 33.918C33.9137 33.8007 33.6717 33.742 33.3931 33.742C33.0704 33.742 32.7624 33.83 32.4691 34.006C32.1904 34.1673 31.9411 34.402 31.7211 34.71C31.5011 35.0033 31.3251 35.3553 31.1931 35.766C31.0611 36.1767 30.9951 36.6313 30.9951 37.13C30.9951 37.4527 31.0464 37.724 31.1491 37.944C31.2664 38.1493 31.4057 38.252 31.5671 38.252ZM42.1259 37.592C42.1699 37.5627 42.2139 37.5627 42.2579 37.592C42.3019 37.6213 42.3165 37.6653 42.3019 37.724C42.0525 38.0613 41.7739 38.362 41.4659 38.626C41.1725 38.8753 40.8939 39 40.6299 39C40.1752 39 39.9479 38.7067 39.9479 38.12C39.9479 37.6213 40.0359 37.0713 40.2119 36.47C40.3879 35.854 40.6299 35.238 40.9379 34.622C40.9965 34.5193 41.0259 34.4167 41.0259 34.314C41.0259 34.1527 40.9525 34.072 40.8059 34.072C40.2632 34.072 39.6619 34.446 39.0019 35.194C38.3565 35.942 37.7552 37.1153 37.1979 38.714C37.1685 38.802 37.0879 38.8753 36.9559 38.934C36.8239 38.978 36.6992 39 36.5819 39C36.4205 39 36.3619 38.934 36.4059 38.802C36.6552 38.1713 36.9119 37.46 37.1759 36.668C37.4545 35.876 37.6965 35.0913 37.9019 34.314C37.9605 34.0353 37.9092 33.896 37.7479 33.896C37.6012 33.896 37.4545 33.9693 37.3079 34.116C37.1612 34.2627 37.0072 34.4533 36.8459 34.688C36.8165 34.7173 36.7799 34.71 36.7359 34.666C36.7065 34.622 36.6992 34.578 36.7139 34.534C36.8752 34.2847 37.0952 34.028 37.3739 33.764C37.6525 33.5 37.9532 33.368 38.2759 33.368C38.6425 33.368 38.7672 33.6173 38.6499 34.116C38.5912 34.4387 38.5105 34.7833 38.4079 35.15C38.3052 35.502 38.1952 35.854 38.0779 36.206C38.2832 35.81 38.5252 35.436 38.8039 35.084C39.0825 34.732 39.3685 34.4313 39.6619 34.182C39.9699 33.9327 40.2705 33.7347 40.5639 33.588C40.8719 33.4413 41.1579 33.368 41.4219 33.368C41.5979 33.368 41.7299 33.412 41.8179 33.5C41.9205 33.588 41.9719 33.6907 41.9719 33.808C41.9719 33.9987 41.9279 34.1893 41.8399 34.38C41.5319 34.9373 41.2679 35.524 41.0479 36.14C40.8425 36.7413 40.7399 37.2987 40.7399 37.812C40.7399 38.1787 40.8572 38.362 41.0919 38.362C41.3999 38.362 41.7445 38.1053 42.1259 37.592ZM60.1528 24.832C60.6221 24.832 60.9741 24.986 61.2088 25.294C61.4581 25.602 61.5828 25.9833 61.5828 26.438C61.5828 26.7313 61.5315 27.0393 61.4288 27.362C61.3261 27.6847 61.2088 27.978 61.0768 28.242C61.0181 28.286 60.9595 28.3007 60.9008 28.286C60.8568 28.2567 60.8421 28.2053 60.8568 28.132C60.9595 27.868 61.0108 27.5967 61.0108 27.318C61.0108 27.0393 60.9521 26.79 60.8348 26.57C60.7321 26.3353 60.5561 26.1447 60.3068 25.998C60.0721 25.8513 59.7715 25.778 59.4048 25.778C58.8768 25.778 58.3928 25.8807 57.9528 26.086C57.5128 26.2767 57.1021 26.6213 56.7208 27.12C56.3541 27.6187 56.0021 28.3007 55.6648 29.166C55.3275 30.0167 54.9901 31.102 54.6528 32.422C54.3741 33.478 54.0515 34.402 53.6848 35.194C53.3181 35.986 52.8928 36.6533 52.4088 37.196C53.0395 37.4453 53.6995 37.6653 54.3888 37.856C55.0928 38.0467 55.8775 38.142 56.7428 38.142C57.4321 38.142 57.9968 38.0247 58.4368 37.79C58.8915 37.5407 59.2875 37.0787 59.6248 36.404C59.6835 36.3747 59.7348 36.382 59.7788 36.426C59.8228 36.4553 59.8301 36.5067 59.8008 36.58C59.4488 37.372 58.9795 37.9733 58.3928 38.384C57.8061 38.7947 57.0215 39 56.0388 39C55.1735 39 54.4035 38.8753 53.7288 38.626C53.0541 38.3767 52.4015 38.1053 51.7708 37.812C50.7881 38.604 49.5268 39 47.9868 39C47.4295 39 47.0041 38.89 46.7108 38.67C46.4321 38.4353 46.2928 38.186 46.2928 37.922C46.2928 37.7313 46.3441 37.5407 46.4468 37.35C46.5641 37.1447 46.7255 36.9687 46.9308 36.822C47.1508 36.6607 47.4075 36.5287 47.7008 36.426C47.9941 36.3233 48.3241 36.272 48.6908 36.272C49.2628 36.272 49.8128 36.3527 50.3408 36.514C50.8835 36.6753 51.4335 36.8587 51.9908 37.064C52.6508 36.2133 53.2301 34.8493 53.7288 32.972C54.0515 31.7693 54.4255 30.6693 54.8508 29.672C55.2908 28.66 55.7748 27.802 56.3028 27.098C56.8455 26.3793 57.4395 25.822 58.0848 25.426C58.7301 25.03 59.4195 24.832 60.1528 24.832ZM48.6908 38.538C49.2481 38.538 49.7468 38.472 50.1868 38.34C50.6268 38.208 51.0375 37.9807 51.4188 37.658C50.9055 37.4087 50.3775 37.196 49.8348 37.02C49.3068 36.844 48.7201 36.756 48.0748 36.756C47.6641 36.756 47.3708 36.822 47.1948 36.954C47.0188 37.086 46.9308 37.2547 46.9308 37.46C46.9308 37.7533 47.0848 38.01 47.3928 38.23C47.7008 38.4353 48.1335 38.538 48.6908 38.538ZM61.2358 34.908C61.1918 34.9373 61.1478 34.93 61.1038 34.886C61.0745 34.8273 61.0745 34.776 61.1038 34.732C61.3091 34.5267 61.5878 34.292 61.9398 34.028C62.2918 33.764 62.6438 33.544 62.9958 33.368C63.1131 33.368 63.1718 33.434 63.1718 33.566C62.9811 33.9033 62.7905 34.27 62.5998 34.666C62.4238 35.062 62.2625 35.458 62.1158 35.854C61.9838 36.2353 61.8738 36.6093 61.7858 36.976C61.6978 37.328 61.6538 37.6213 61.6538 37.856C61.6538 38.164 61.7565 38.318 61.9618 38.318C62.1231 38.318 62.2771 38.252 62.4238 38.12C62.5851 37.9733 62.7685 37.7827 62.9738 37.548C63.0031 37.5187 63.0398 37.526 63.0838 37.57C63.1278 37.614 63.1351 37.6653 63.1058 37.724C62.8418 38.0467 62.5558 38.34 62.2478 38.604C61.9545 38.868 61.6758 39 61.4118 39C61.0305 39 60.8398 38.758 60.8398 38.274C60.8398 37.9953 60.8838 37.6653 60.9718 37.284C61.0745 36.888 61.1991 36.492 61.3458 36.096C61.4925 35.7 61.6538 35.3187 61.8298 34.952C62.0205 34.5853 62.2038 34.27 62.3798 34.006C62.2185 34.1233 62.0131 34.2773 61.7638 34.468C61.5291 34.644 61.3531 34.7907 61.2358 34.908ZM63.2158 32.422C63.1718 32.466 63.1278 32.4733 63.0838 32.444C63.0545 32.4 63.0325 32.3487 63.0178 32.29C63.0031 32.2167 62.9958 32.136 62.9958 32.048C62.9958 31.96 63.0178 31.8867 63.0618 31.828C63.4431 31.3 63.9785 30.7353 64.6678 30.134C64.7118 30.1193 64.7558 30.134 64.7998 30.178C64.8438 30.2073 64.8511 30.2367 64.8218 30.266C64.5138 30.5447 64.2205 30.882 63.9418 31.278C63.6631 31.6593 63.4211 32.0407 63.2158 32.422ZM69.5829 37.592C69.6269 37.5627 69.6709 37.5627 69.7149 37.592C69.7589 37.6213 69.7736 37.6653 69.7589 37.724C69.5096 38.0613 69.2309 38.362 68.9229 38.626C68.6296 38.8753 68.3509 39 68.0869 39C67.6322 39 67.4049 38.7067 67.4049 38.12C67.4049 37.6213 67.4929 37.0713 67.6689 36.47C67.8449 35.854 68.0869 35.238 68.3949 34.622C68.4536 34.5193 68.4829 34.4167 68.4829 34.314C68.4829 34.1527 68.4096 34.072 68.2629 34.072C67.7202 34.072 67.1189 34.446 66.4589 35.194C65.8136 35.942 65.2122 37.1153 64.6549 38.714C64.6256 38.802 64.5449 38.8753 64.4129 38.934C64.2809 38.978 64.1562 39 64.0389 39C63.8776 39 63.8189 38.934 63.8629 38.802C64.1122 38.1713 64.3689 37.46 64.6329 36.668C64.9116 35.876 65.1536 35.0913 65.3589 34.314C65.4176 34.0353 65.3662 33.896 65.2049 33.896C65.0582 33.896 64.9116 33.9693 64.7649 34.116C64.6182 34.2627 64.4642 34.4533 64.3029 34.688C64.2736 34.7173 64.2369 34.71 64.1929 34.666C64.1636 34.622 64.1562 34.578 64.1709 34.534C64.3322 34.2847 64.5522 34.028 64.8309 33.764C65.1096 33.5 65.4102 33.368 65.7329 33.368C66.0996 33.368 66.2242 33.6173 66.1069 34.116C66.0482 34.4387 65.9676 34.7833 65.8649 35.15C65.7622 35.502 65.6522 35.854 65.5349 36.206C65.7402 35.81 65.9822 35.436 66.2609 35.084C66.5396 34.732 66.8256 34.4313 67.1189 34.182C67.4269 33.9327 67.7276 33.7347 68.0209 33.588C68.3289 33.4413 68.6149 33.368 68.8789 33.368C69.0549 33.368 69.1869 33.412 69.2749 33.5C69.3776 33.588 69.4289 33.6907 69.4289 33.808C69.4289 33.9987 69.3849 34.1893 69.2969 34.38C68.9889 34.9373 68.7249 35.524 68.5049 36.14C68.2996 36.7413 68.1969 37.2987 68.1969 37.812C68.1969 38.1787 68.3142 38.362 68.5489 38.362C68.8569 38.362 69.2016 38.1053 69.5829 37.592ZM74.3133 33.456C74.3866 33.4853 74.4159 33.5293 74.4013 33.588C74.3866 33.6467 74.3206 33.6833 74.2033 33.698C73.9686 33.7127 73.7046 33.7273 73.4113 33.742C73.1326 33.7567 72.8466 33.7787 72.5533 33.808C72.2599 34.5413 72.0179 35.2453 71.8273 35.92C71.6366 36.5947 71.5413 37.152 71.5413 37.592C71.5413 38.0907 71.7319 38.34 72.1133 38.34C72.4946 38.34 72.9126 38.0027 73.3673 37.328C73.4113 37.2987 73.4553 37.306 73.4993 37.35C73.5433 37.3793 73.5579 37.4307 73.5433 37.504C73.4113 37.7093 73.2573 37.9073 73.0813 38.098C72.9199 38.274 72.7513 38.428 72.5753 38.56C72.3993 38.692 72.2306 38.802 72.0693 38.89C71.9079 38.9633 71.7759 39 71.6733 39C71.3506 39 71.1086 38.9047 70.9473 38.714C70.8006 38.5087 70.7273 38.2667 70.7273 37.988C70.7273 37.504 70.8299 36.8953 71.0353 36.162C71.2406 35.4287 71.4973 34.6733 71.8053 33.896C71.6146 33.9253 71.4313 33.9547 71.2553 33.984C71.0793 34.0133 70.9106 34.0427 70.7493 34.072C70.6759 34.0573 70.6539 34.0207 70.6833 33.962C70.7273 33.9033 70.7933 33.8447 70.8813 33.786C70.9839 33.7273 71.1013 33.676 71.2332 33.632C71.3653 33.5733 71.4899 33.544 71.6073 33.544C71.6806 33.5293 71.7393 33.522 71.7833 33.522C71.8419 33.522 71.9006 33.522 71.9593 33.522C72.1646 33.0673 72.3699 32.6347 72.5753 32.224C72.7806 31.7987 72.9859 31.41 73.1913 31.058C73.2793 30.97 73.3746 30.8967 73.4773 30.838C73.5946 30.7647 73.7046 30.7207 73.8073 30.706C73.9099 30.6767 73.9906 30.6693 74.0493 30.684C74.1079 30.684 74.1299 30.706 74.1153 30.75C73.8659 31.1313 73.6166 31.5567 73.3673 32.026C73.1326 32.4953 72.9052 32.9793 72.6852 33.478C72.9493 33.478 73.2133 33.478 73.4773 33.478C73.7413 33.4633 74.0199 33.456 74.3133 33.456ZM77.105 33.368C77.501 33.368 77.7943 33.5 77.985 33.764C78.1757 34.028 78.271 34.3727 78.271 34.798C78.271 35.2967 78.1757 35.7953 77.985 36.294C77.7943 36.7927 77.5523 37.2473 77.259 37.658C76.9657 38.054 76.643 38.3767 76.291 38.626C75.9537 38.8753 75.6383 39 75.345 39C74.993 39 74.7143 38.8607 74.509 38.582C74.3037 38.3033 74.201 37.9073 74.201 37.394C74.201 36.9833 74.2817 36.5433 74.443 36.074C74.6043 35.6047 74.817 35.172 75.081 34.776C75.3597 34.3653 75.6677 34.028 76.005 33.764C76.357 33.5 76.7237 33.368 77.105 33.368ZM75.785 38.318C76.005 38.318 76.2177 38.2447 76.423 38.098C76.643 37.9367 76.8337 37.7313 76.995 37.482C77.1563 37.218 77.281 36.9173 77.369 36.58C77.4717 36.2427 77.523 35.8907 77.523 35.524C77.523 35.084 77.4497 34.7393 77.303 34.49C77.1563 34.226 76.9143 34.094 76.577 34.094C76.357 34.094 76.1443 34.1747 75.939 34.336C75.7337 34.4827 75.5503 34.688 75.389 34.952C75.2423 35.2013 75.125 35.502 75.037 35.854C74.949 36.1913 74.905 36.5507 74.905 36.932C74.905 37.856 75.1983 38.318 75.785 38.318ZM84.6864 37.592C84.7304 37.5627 84.7744 37.5627 84.8184 37.592C84.8624 37.6213 84.8771 37.6653 84.8624 37.724C84.6131 38.0613 84.3344 38.362 84.0264 38.626C83.7331 38.8753 83.4544 39 83.1904 39C82.7358 39 82.5084 38.7067 82.5084 38.12C82.5084 37.6213 82.5964 37.0713 82.7724 36.47C82.9484 35.854 83.1904 35.238 83.4984 34.622C83.5571 34.5193 83.5864 34.4167 83.5864 34.314C83.5864 34.1527 83.5131 34.072 83.3664 34.072C82.8238 34.072 82.2224 34.446 81.5624 35.194C80.9171 35.942 80.3158 37.1153 79.7584 38.714C79.7291 38.802 79.6484 38.8753 79.5164 38.934C79.3844 38.978 79.2598 39 79.1424 39C78.9811 39 78.9224 38.934 78.9664 38.802C79.2158 38.1713 79.4724 37.46 79.7364 36.668C80.0151 35.876 80.2571 35.0913 80.4624 34.314C80.5211 34.0353 80.4698 33.896 80.3084 33.896C80.1618 33.896 80.0151 33.9693 79.8684 34.116C79.7218 34.2627 79.5678 34.4533 79.4064 34.688C79.3771 34.7173 79.3404 34.71 79.2964 34.666C79.2671 34.622 79.2598 34.578 79.2744 34.534C79.4358 34.2847 79.6558 34.028 79.9344 33.764C80.2131 33.5 80.5138 33.368 80.8364 33.368C81.2031 33.368 81.3278 33.6173 81.2104 34.116C81.1518 34.4387 81.0711 34.7833 80.9684 35.15C80.8658 35.502 80.7558 35.854 80.6384 36.206C80.8438 35.81 81.0858 35.436 81.3644 35.084C81.6431 34.732 81.9291 34.4313 82.2224 34.182C82.5304 33.9327 82.8311 33.7347 83.1244 33.588C83.4324 33.4413 83.7184 33.368 83.9824 33.368C84.1584 33.368 84.2904 33.412 84.3784 33.5C84.4811 33.588 84.5324 33.6907 84.5324 33.808C84.5324 33.9987 84.4884 34.1893 84.4004 34.38C84.0924 34.9373 83.8284 35.524 83.6084 36.14C83.4031 36.7413 83.3004 37.2987 83.3004 37.812C83.3004 38.1787 83.4178 38.362 83.6524 38.362C83.9604 38.362 84.3051 38.1053 84.6864 37.592Z" fill="black"/>
</svg>
