<svg width="640" height="427" viewBox="0 0 640 427" fill="none" xmlns="http://www.w3.org/2000/svg">
<g id="svgContainer">
<path id="squareLinesSvg2" d="M1 273.888L24.8462 247M1 308.459L58.6923 247M1 346.103L91 247M1 379.137L128.692 247M1 416.013L170.231 247M27.9231 426L181 276.193M64.0769 426L181 314.605M94.8462 426L181 349.944M128.692 426L181 379.137M156.385 426L181 402.953" stroke="white" stroke-width="2"/>
<path id="squareLinesSvg" d="M437 46.8884L460.846 20M437 81.4592L494.692 20M437 119.103L527 20M437 152.137L564.692 20M437 189.013L606.231 20M463.923 199L617 49.1931M500.077 199L617 87.6051M530.846 199L617 122.944M564.692 199L617 152.137M592.385 199L617 175.953" stroke="white" stroke-width="2"/>
<circle id="EllipseBack" cx="205" cy="171" r="79" fill="url(#paint0_radial_691_2291)"/>
<path id="Ellipsefront" d="M511.5 197C520 211 386.5 308 375 303C309 294 238.5 255.542 238.5 197C207 72.0002 299 79.5001 375 91C438.5 79 511.5 138.458 511.5 197Z" fill="url(#paint1_radial_691_2291)"/>
<rect id="SquareSvg1" x="32.5" y="342.5" width="56" height="56" rx="6.5" stroke="white"/>
<rect id="SquareSvg2" x="531" y="329" width="55" height="55" rx="6" stroke="white" stroke-width="2"/>
<g id="CircleSvg" filter="url(#filter0_i_691_2291)">
<path d="M179.499 356.308C178.648 359.406 176.816 362.492 174.44 364.922C172.039 367.377 169.189 369.057 166.39 369.5C159.261 369.44 153.5 363.643 153.5 356.5C153.5 349.32 159.32 343.5 166.5 343.5C173.615 343.5 179.396 349.217 179.499 356.308Z" stroke="white" stroke-width="3"/>
</g>
<path id="ScribbleSvg" d="M260.543 203.207C261.485 202.631 261.783 201.4 261.207 200.457C260.631 199.515 259.4 199.218 258.457 199.794L260.543 203.207ZM250.5 207L250.829 208.973L251.212 208.909L251.543 208.707L250.5 207ZM246 205.5L247.28 207.037L247.301 207.02L247.321 207.002L246 205.5ZM258.5 194.5L259.821 196.002L259.936 195.901L260.034 195.783L258.5 194.5ZM257 193L256.227 191.156L256.192 191.171L256.157 191.186L257 193ZM198.5 227L197.335 225.375L195.419 226.748L197.086 228.415L198.5 227ZM199 227.5L197.586 228.915L198.516 229.845L199.739 229.359L199 227.5ZM243 210L242.756 208.015L242.5 208.047L242.261 208.142L243 210ZM244 211L245.43 212.398L245.451 212.377L245.47 212.356L244 211ZM222.5 233L221.07 231.602L219.687 233.017L221.086 234.415L222.5 233ZM223 233.5L221.586 234.915L222.59 235.917L223.868 235.302L223 233.5ZM250 220.5L249.211 218.662L249.171 218.679L249.132 218.698L250 220.5ZM250.5 221.5L251.754 223.058L251.807 223.015L251.858 222.968L250.5 221.5ZM227.5 240L226.246 238.442L224.51 239.838L226.086 241.414L227.5 240ZM228.5 241L227.086 242.414L227.9 243.229L229.013 242.933L228.5 241ZM260.5 232.5L260.15 230.531L260.068 230.545L259.987 230.567L260.5 232.5ZM265 236L266.032 237.713L266.202 237.611L266.349 237.477L265 236ZM223.5 261L222.468 259.287L222.302 259.387L222.157 259.518L223.5 261ZM224.5 263L224.793 264.978L225.118 264.93L225.411 264.78L224.5 263ZM258.457 199.794L249.457 205.293L251.543 208.707L260.543 203.207L258.457 199.794ZM250.171 205.027C248.751 205.264 247.62 205.437 246.76 205.529C246.331 205.575 245.999 205.598 245.752 205.602C245.483 205.607 245.404 205.587 245.439 205.594C245.461 205.6 245.577 205.627 245.733 205.715C245.896 205.808 246.144 205.992 246.334 206.319C246.765 207.061 246.477 207.713 246.432 207.806C246.378 207.915 246.364 207.891 246.541 207.706C246.697 207.544 246.936 207.324 247.28 207.037L244.72 203.964C244.314 204.302 243.953 204.627 243.656 204.936C243.38 205.224 243.06 205.599 242.843 206.039C242.634 206.464 242.325 207.381 242.876 208.329C243.363 209.167 244.189 209.412 244.543 209.493C245.308 209.669 246.292 209.603 247.188 209.506C248.173 209.4 249.403 209.211 250.829 208.973L250.171 205.027ZM247.321 207.002L259.821 196.002L257.179 192.999L244.679 203.999L247.321 207.002ZM260.034 195.783C260.557 195.158 261.021 194.567 261.329 194.059C261.477 193.817 261.666 193.471 261.772 193.073C261.865 192.721 262.023 191.812 261.349 191.003C260.717 190.245 259.852 190.192 259.535 190.19C259.143 190.189 258.765 190.267 258.471 190.344C257.861 190.502 257.098 190.79 256.227 191.156L257.773 194.845C258.618 194.491 259.159 194.298 259.475 194.216C259.643 194.172 259.634 194.191 259.521 194.19C259.482 194.19 258.805 194.199 258.275 193.563C257.704 192.877 257.878 192.152 257.906 192.045C257.947 191.893 257.989 191.854 257.912 191.981C257.772 192.212 257.477 192.606 256.966 193.217L260.034 195.783ZM256.157 191.186C232.307 202.266 219.324 209.615 197.335 225.375L199.665 228.626C221.435 213.024 234.199 205.797 257.843 194.814L256.157 191.186ZM197.086 228.415L197.586 228.915L200.414 226.086L199.914 225.586L197.086 228.415ZM199.739 229.359L243.739 211.859L242.261 208.142L198.261 225.642L199.739 229.359ZM243.244 211.985C243.633 211.938 243.846 211.925 243.947 211.927C243.996 211.928 243.949 211.931 243.847 211.909C243.766 211.89 243.456 211.815 243.141 211.535C242.752 211.19 242.54 210.7 242.532 210.212C242.525 209.818 242.652 209.553 242.683 209.492C242.74 209.377 242.752 209.404 242.53 209.645L245.47 212.356C245.724 212.081 246.052 211.701 246.266 211.27C246.374 211.051 246.54 210.652 246.531 210.145C246.521 209.542 246.267 208.96 245.795 208.542C245.398 208.19 244.965 208.06 244.721 208.005C244.456 207.946 244.204 207.93 244.01 207.927C243.621 207.921 243.183 207.963 242.756 208.015L243.244 211.985ZM242.57 209.602L221.07 231.602L223.93 234.398L245.43 212.398L242.57 209.602ZM221.086 234.415L221.586 234.915L224.414 232.085L223.914 231.586L221.086 234.415ZM223.868 235.302L250.868 222.302L249.132 218.698L222.132 231.698L223.868 235.302ZM250.789 222.338C251.33 222.106 251.679 221.97 251.882 221.906C251.996 221.87 251.964 221.89 251.849 221.901C251.794 221.907 251.614 221.922 251.375 221.875C251.139 221.829 250.65 221.679 250.262 221.192C249.849 220.673 249.816 220.107 249.856 219.774C249.892 219.472 249.994 219.266 250.027 219.201C250.096 219.066 250.146 219.025 250.064 219.12C249.927 219.281 249.642 219.57 249.142 220.032L251.858 222.968C252.371 222.494 252.802 222.072 253.101 221.724C253.238 221.564 253.436 221.318 253.586 221.026C253.66 220.883 253.784 220.61 253.827 220.252C253.874 219.863 253.831 219.254 253.392 218.701C252.978 218.181 252.445 218.009 252.15 217.951C251.852 217.892 251.597 217.907 251.451 217.921C251.154 217.951 250.877 218.029 250.683 218.09C250.271 218.219 249.76 218.427 249.211 218.662L250.789 222.338ZM249.246 219.942L226.246 238.442L228.754 241.558L251.754 223.058L249.246 219.942ZM226.086 241.414L227.086 242.414L229.914 239.586L228.914 238.586L226.086 241.414ZM229.013 242.933L261.013 234.433L259.987 230.567L227.987 239.067L229.013 242.933ZM260.85 234.469C262.991 234.089 264.514 233.891 265.538 233.848C266.053 233.826 266.361 233.848 266.521 233.874C266.731 233.91 266.48 233.918 266.185 233.624C266.011 233.45 265.866 233.212 265.798 232.933C265.734 232.67 265.758 232.461 265.782 232.352C265.819 232.179 265.866 232.184 265.696 232.42C265.375 232.866 264.72 233.548 263.651 234.523L266.349 237.477C267.421 236.498 268.355 235.573 268.942 234.756C269.227 234.361 269.558 233.82 269.693 233.188C269.853 232.442 269.734 231.514 269.011 230.793C268.426 230.21 267.683 230.014 267.184 229.93C266.634 229.837 266.015 229.824 265.368 229.851C264.069 229.906 262.332 230.144 260.15 230.531L260.85 234.469ZM263.968 234.287L222.468 259.287L224.532 262.713L266.032 237.713L263.968 234.287ZM222.157 259.518C221.54 260.076 221 260.613 220.637 261.108C220.462 261.347 220.227 261.709 220.101 262.158C219.961 262.656 219.918 263.437 220.443 264.154C220.9 264.777 221.533 264.987 221.856 265.066C222.213 265.153 222.566 265.169 222.845 265.167C223.41 265.164 224.091 265.082 224.793 264.978L224.207 261.022C223.522 261.123 223.083 261.166 222.824 261.167C222.691 261.168 222.706 261.156 222.803 261.18C222.865 261.195 223.315 261.306 223.67 261.79C223.859 262.048 223.966 262.342 223.998 262.63C224.028 262.9 223.988 263.114 223.952 263.241C223.889 263.465 223.803 263.555 223.863 263.473C223.972 263.324 224.255 263.014 224.843 262.482L222.157 259.518ZM225.411 264.78L268.411 242.78L266.589 239.22L223.589 261.22L225.411 264.78Z" fill="#23C7A7"/>
<path id="Tablet" d="M265.5 246L224 184C219.839 185.775 218.234 187.169 216 190L262 249.5L265.5 246Z" fill="#FFD702" stroke="#23C7A7" stroke-width="2"/>
<g id="JordanSvg">
<g id="Vector 701" filter="url(#filter1_d_691_2291)">
<path d="M343.5 189L345.499 188.95L345.497 188.874L345.49 188.798L343.5 189ZM339 181.5L338.609 179.539L338.588 179.543L338.566 179.548L339 181.5ZM334.5 182.5L334.066 180.548L333.674 180.635L333.346 180.867L334.5 182.5ZM316.5 196L316.642 197.995L317.249 197.952L317.728 197.578L316.5 196ZM309.5 196.5L309.358 194.505L309.192 194.517L309.03 194.556L309.5 196.5ZM307.5 189.5L309.494 189.349L309.476 189.102L309.397 188.868L307.5 189.5ZM306.5 186.5L308.397 185.868L308.096 184.962L307.202 184.627L306.5 186.5ZM302.5 185L301.251 183.438L298.502 185.637L301.798 186.873L302.5 185ZM307.5 181L308.749 182.562L309.092 182.287L309.289 181.894L307.5 181ZM300 181L298.336 182.109L298.93 183H300V181ZM299 179.5L297.296 178.454L296.626 179.544L297.336 180.609L299 179.5ZM300.5 173L302.482 172.729L302.426 172.323L302.215 171.971L300.5 173ZM299 170.5L300.715 169.471L300.069 168.395L298.819 168.508L299 170.5ZM293.5 171V173H293.591L293.681 172.992L293.5 171ZM292 166.5L292.894 168.289L293.002 168.235L293.101 168.169L292 166.5ZM299 164.5L299 166.5L301 166.5V164.5H299ZM299 161H301V160.877L300.985 160.754L299 161ZM296 154L294.22 154.912L294.297 155.062L294.398 155.198L296 154ZM292 141.5L290.001 141.558L290.005 141.704L290.03 141.848L292 141.5ZM299 112L297.693 110.486L297.447 110.698L297.281 110.977L299 112ZM326.5 120.5L325.849 118.609L325.783 118.632L325.719 118.659L326.5 120.5ZM335 125L333.025 125.317L333.036 125.384L333.051 125.449L335 125ZM328.5 130.5V132.5H328.671L328.839 132.471L328.5 130.5ZM338.5 139.5L337.445 141.199L337.543 141.26L337.647 141.309L338.5 139.5ZM344.5 138L346.095 139.207L346.344 138.878L346.442 138.477L344.5 138ZM350 131.5L349.682 129.526L349.597 129.539L349.513 129.56L350 131.5ZM361 146.5L359.211 145.606L359.155 145.718L359.113 145.838L361 146.5ZM353.5 158L352.157 156.518L352.102 156.568L352.051 156.621L353.5 158ZM347.85 157.524C347.035 156.779 345.77 156.835 345.024 157.65C344.279 158.465 344.335 159.73 345.15 160.476L347.85 157.524ZM339 93.0001L339.346 94.9698L339.363 94.9669L339.38 94.9637L339 93.0001ZM365 102.5L363.326 103.595L363.363 103.65L363.402 103.703L365 102.5ZM377.5 127.5L375.589 128.091L375.644 128.267L375.729 128.43L377.5 127.5ZM370 150L368.222 149.085L368.163 149.2L368.119 149.321L370 150ZM368.5 171L366.534 171.369L366.605 171.748L366.813 172.074L368.5 171ZM382.5 193L380.813 194.074L381.094 194.516L381.557 194.764L382.5 193ZM404 204.5L405.123 202.845L405.036 202.786L404.943 202.736L404 204.5ZM422.5 227.5L424.411 226.91L424.376 226.797L424.328 226.688L422.5 227.5ZM432 271.5L430.023 271.8L430.027 271.826L430.031 271.852L432 271.5ZM345.999 208.95L345.499 188.95L341.501 189.05L342.001 209.05L345.999 208.95ZM345.49 188.798C345.329 187.217 345.146 185.853 344.904 184.709C344.665 183.583 344.347 182.549 343.856 181.699C343.341 180.806 342.602 180.061 341.56 179.674C340.568 179.306 339.542 179.353 338.609 179.539L339.391 183.462C339.938 183.352 340.137 183.413 340.168 183.424C340.177 183.428 340.188 183.432 340.212 183.453C340.241 183.48 340.305 183.548 340.391 183.697C340.577 184.019 340.788 184.582 340.99 185.537C341.189 186.475 341.355 187.675 341.51 189.202L345.49 188.798ZM338.566 179.548L334.066 180.548L334.934 184.452L339.434 183.452L338.566 179.548ZM333.346 180.867C328.681 184.162 325.882 186.163 315.272 194.422L317.728 197.578C328.3 189.35 331.049 187.387 335.654 184.134L333.346 180.867ZM316.358 194.005L309.358 194.505L309.642 198.495L316.642 197.995L316.358 194.005ZM309.03 194.556C309.12 194.534 309.318 194.504 309.572 194.566C309.839 194.631 310.038 194.766 310.161 194.887C310.338 195.062 310.278 195.127 310.151 194.669C309.911 193.807 309.709 192.187 309.494 189.349L305.506 189.651C305.715 192.415 305.933 194.435 306.297 195.742C306.472 196.369 306.76 197.152 307.355 197.738C307.686 198.064 308.112 198.328 308.625 198.453C309.126 198.575 309.59 198.536 309.97 198.444L309.03 194.556ZM309.397 188.868L308.397 185.868L304.603 187.133L305.603 190.133L309.397 188.868ZM307.202 184.627L303.202 183.127L301.798 186.873L305.798 188.373L307.202 184.627ZM303.749 186.562L308.749 182.562L306.251 179.438L301.251 183.438L303.749 186.562ZM309.289 181.894L311.289 177.894L307.711 176.106L305.711 180.106L309.289 181.894ZM307.5 179H300V183H307.5V179ZM301.664 179.891L300.664 178.391L297.336 180.609L298.336 182.109L301.664 179.891ZM300.704 180.547C301.43 179.364 302.034 178.243 302.359 176.958C302.692 175.646 302.698 174.315 302.482 172.729L298.518 173.271C298.692 174.54 298.648 175.32 298.482 175.976C298.309 176.658 297.967 177.36 297.296 178.454L300.704 180.547ZM302.215 171.971L300.715 169.471L297.285 171.529L298.785 174.029L302.215 171.971ZM298.819 168.508L293.319 169.008L293.681 172.992L299.181 172.492L298.819 168.508ZM293.5 171C293.5 169 293.501 169 293.502 169C293.502 169 293.503 169 293.503 169C293.504 169 293.505 169 293.506 169C293.508 169 293.509 169 293.511 169C293.514 169 293.517 169 293.519 169C293.523 169 293.525 169 293.525 169C293.526 169 293.519 169 293.507 168.999C293.481 168.998 293.434 168.994 293.374 168.986C293.243 168.969 293.104 168.937 292.993 168.893C292.878 168.847 292.884 168.824 292.927 168.876C293 168.964 293 169.045 293 169H289C289 169.956 289.312 170.787 289.854 171.437C290.366 172.051 290.997 172.403 291.507 172.607C292.021 172.813 292.507 172.906 292.845 172.951C293.019 172.974 293.168 172.987 293.278 172.993C293.334 172.996 293.381 172.998 293.419 172.999C293.437 172.999 293.453 173 293.467 173C293.474 173 293.48 173 293.485 173C293.488 173 293.491 173 293.493 173C293.494 173 293.496 173 293.497 173C293.497 173 293.498 173 293.498 173C293.499 173 293.5 173 293.5 171ZM293 169C293 168.35 293.157 168.12 293.164 168.109C293.174 168.095 293.166 168.111 293.124 168.146C293.104 168.163 293.076 168.184 293.039 168.208C293.02 168.22 292.999 168.233 292.975 168.246C292.963 168.253 292.95 168.26 292.937 168.267C292.93 168.271 292.923 168.274 292.916 168.278C292.913 168.28 292.909 168.282 292.905 168.283C292.904 168.284 292.902 168.285 292.9 168.286C292.899 168.287 292.898 168.287 292.897 168.288C292.896 168.288 292.894 168.289 292 166.5C291.106 164.711 291.104 164.712 291.103 164.713C291.102 164.713 291.101 164.714 291.1 164.714C291.098 164.715 291.096 164.716 291.094 164.717C291.09 164.719 291.086 164.721 291.082 164.723C291.074 164.727 291.066 164.731 291.057 164.736C291.04 164.745 291.022 164.755 291.003 164.766C290.964 164.788 290.922 164.813 290.876 164.843C290.783 164.902 290.677 164.978 290.563 165.073C290.334 165.264 290.076 165.53 289.836 165.891C289.343 166.63 289 167.65 289 169H293ZM293.101 168.169C294.131 167.49 294.851 167.11 295.638 166.872C296.431 166.631 297.416 166.5 299 166.5L299 162.5C297.213 162.5 295.794 162.645 294.479 163.043C293.156 163.444 292.062 164.063 290.899 164.831L293.101 168.169ZM301 164.5V161H297V164.5H301ZM300.985 160.754C300.815 159.386 300.583 158.168 300.05 156.871C299.523 155.589 298.744 154.33 297.602 152.802L294.398 155.198C295.442 156.593 296.003 157.548 296.35 158.392C296.691 159.22 296.866 160.041 297.015 161.246L300.985 160.754ZM297.78 153.088C295.719 149.068 294.916 146.507 293.97 141.152L290.03 141.848C291.03 147.506 291.94 150.464 294.22 154.912L297.78 153.088ZM293.999 141.442C293.827 135.455 293.967 130.995 294.898 126.731C295.824 122.491 297.559 118.333 300.719 113.023L297.281 110.977C293.973 116.537 292.034 121.1 290.99 125.878C289.952 130.632 289.826 135.487 290.001 141.558L293.999 141.442ZM297.475 113.294C308.42 126.188 314.444 131.339 323.756 132.485L324.244 128.515C316.62 127.577 311.487 123.619 300.525 110.706L297.475 113.294ZM325.96 130.103C325.38 127.242 325.141 125.544 325.345 124.384C325.432 123.885 325.595 123.555 325.827 123.286C326.075 123 326.502 122.672 327.281 122.341L325.719 118.659C324.56 119.15 323.564 119.79 322.804 120.667C322.029 121.562 321.598 122.59 321.405 123.693C321.047 125.736 321.496 128.216 322.04 130.897L325.96 130.103ZM327.151 122.391C328.535 121.915 329.563 121.662 330.336 121.585C331.099 121.509 331.463 121.62 331.644 121.716C331.99 121.9 332.58 122.55 333.025 125.317L336.975 124.683C336.538 121.968 335.763 119.375 333.521 118.184C332.409 117.592 331.174 117.482 329.939 117.605C328.716 117.727 327.35 118.093 325.849 118.609L327.151 122.391ZM333.051 125.449C333.219 126.176 333.196 126.564 333.15 126.757C333.119 126.886 333.067 126.995 332.871 127.149C332.624 127.341 332.169 127.579 331.348 127.83C330.539 128.076 329.497 128.299 328.161 128.529L328.839 132.471C330.23 132.232 331.466 131.975 332.514 131.656C333.551 131.34 334.533 130.925 335.331 130.302C336.18 129.64 336.781 128.772 337.041 127.685C337.285 126.66 337.189 125.593 336.949 124.551L333.051 125.449ZM328.5 128.5H324V132.5H328.5V128.5ZM322.945 132.199L337.445 141.199L339.555 137.801L325.055 128.801L322.945 132.199ZM337.647 141.309C339.461 142.164 341.173 142.607 342.814 142.034C344.348 141.498 345.341 140.203 346.095 139.207L342.905 136.793C342.043 137.932 341.718 138.18 341.496 138.257C341.382 138.297 340.903 138.422 339.353 137.691L337.647 141.309ZM346.442 138.477C347.015 136.141 347.567 135.111 348.073 134.567C348.528 134.078 349.13 133.781 350.487 133.44L349.513 129.56C347.973 129.947 346.419 130.475 345.146 131.842C343.924 133.154 343.174 135.01 342.558 137.524L346.442 138.477ZM350.318 133.475C353.093 133.028 355.13 133.289 356.583 133.884C358.012 134.469 358.987 135.42 359.609 136.583C360.894 138.988 360.752 142.523 359.211 145.606L362.789 147.394C364.748 143.477 365.186 138.533 363.136 134.698C362.09 132.741 360.418 131.132 358.099 130.182C355.802 129.242 352.987 128.993 349.682 129.526L350.318 133.475ZM359.113 145.838C358.115 148.68 357.225 150.551 356.195 152.085C355.167 153.616 353.942 154.9 352.157 156.518L354.843 159.482C356.729 157.772 358.226 156.236 359.516 154.314C360.804 152.396 361.827 150.181 362.887 147.163L359.113 145.838ZM352.051 156.621C350.565 158.184 349.871 158.508 349.56 158.552C349.437 158.569 349.028 158.602 347.85 157.524L345.15 160.476C346.502 161.712 348.115 162.797 350.121 162.512C351.939 162.255 353.48 160.922 354.949 159.379L352.051 156.621ZM300.307 113.514C306.574 108.105 311.647 104.322 317.455 101.466C323.26 98.6109 329.902 96.6306 339.346 94.9698L338.654 91.0303C328.993 92.7291 321.951 94.7969 315.69 97.8763C309.433 100.954 304.059 104.991 297.693 110.486L300.307 113.514ZM339.38 94.9637C346.583 93.5706 351.063 93.6646 354.415 94.9912C357.725 96.3008 360.287 98.9508 363.326 103.595L366.674 101.405C363.503 96.5594 360.372 93.0463 355.887 91.2718C351.446 89.5143 346.03 89.6033 338.62 91.0364L339.38 94.9637ZM363.402 103.703C370.995 113.789 372.733 118.849 375.589 128.091L379.411 126.91C376.472 117.4 374.56 111.874 366.598 101.297L363.402 103.703ZM375.729 128.43C376.154 129.239 376.336 130.64 375.201 133.994C374.082 137.299 371.86 142.013 368.222 149.085L371.778 150.915C375.406 143.865 377.762 138.903 378.989 135.276C380.201 131.698 380.499 128.91 379.271 126.57L375.729 128.43ZM368.119 149.321C366.741 153.14 365.882 156.33 365.613 159.772C365.345 163.208 365.674 166.783 366.534 171.369L370.466 170.631C369.639 166.224 369.371 163.033 369.601 160.084C369.831 157.141 370.565 154.328 371.881 150.679L368.119 149.321ZM366.813 172.074L380.813 194.074L384.187 191.926L370.187 169.926L366.813 172.074ZM381.557 194.764L403.057 206.264L404.943 202.736L383.443 191.236L381.557 194.764ZM402.877 206.155C407.339 209.181 410.473 211.833 413.132 215.119C415.801 218.418 418.066 222.445 420.672 228.312L424.328 226.688C421.656 220.675 419.225 216.29 416.241 212.603C413.247 208.903 409.77 205.996 405.123 202.845L402.877 206.155ZM420.589 228.09C425.917 245.357 427.447 254.803 430.023 271.8L433.977 271.2C431.391 254.137 429.826 244.461 424.411 226.91L420.589 228.09ZM430.031 271.852C434.506 296.863 436.683 310.871 438.505 336.144L442.495 335.856C440.659 310.392 438.457 296.235 433.969 271.148L430.031 271.852Z" fill="#23C7A7"/>
</g>
<g id="Vector 700" filter="url(#filter2_d_691_2291)">
<path d="M389 186.5L341 238.5C361.054 217.028 372.257 205.229 391.5 188.5L389 186.5Z" fill="#23C7A7"/>
<path d="M341 238.5L338.061 235.787C336.565 237.407 336.663 239.931 338.278 241.431C339.894 242.931 342.419 242.841 343.923 241.23L341 238.5ZM389 186.5L391.499 183.377L388.589 181.048L386.061 183.787L389 186.5ZM391.5 188.5L394.124 191.519L397.744 188.372L393.999 185.377L391.5 188.5ZM343.939 241.213L391.939 189.213L386.061 183.787L338.061 235.787L343.939 241.213ZM386.501 189.623L389.001 191.623L393.999 185.377L391.499 183.377L386.501 189.623ZM388.876 185.481C369.467 202.355 358.145 214.282 338.077 235.77L343.923 241.23C363.963 219.774 375.048 208.103 394.124 191.519L388.876 185.481Z" fill="#23C7A7"/>
</g>
<g id="Vector 699" filter="url(#filter3_d_691_2291)">
<path d="M391.794 276.554C390.167 278.048 390.06 280.578 391.554 282.206C393.048 283.833 395.578 283.94 397.206 282.446L391.794 276.554ZM397.206 282.446C403.599 276.574 407.067 273.755 413.531 269.946L409.469 263.054C402.347 267.251 398.42 270.47 391.794 276.554L397.206 282.446Z" fill="#23C7A7"/>
</g>
<g id="Vector 698" filter="url(#filter4_d_691_2291)">
<path d="M259.375 249.782C257.598 248.47 255.093 248.847 253.782 250.625C252.47 252.402 252.847 254.907 254.625 256.218L259.375 249.782ZM348.125 325.218C349.902 326.53 352.407 326.153 353.718 324.375C355.03 322.598 354.653 320.093 352.875 318.782L348.125 325.218ZM363.475 307.674C364.952 306.031 364.817 303.502 363.174 302.025C361.531 300.548 359.002 300.683 357.525 302.326L363.475 307.674ZM254.625 256.218L344.95 322.875L349.7 316.438L259.375 249.782L254.625 256.218ZM344.95 322.875L348.125 325.218L352.875 318.782L349.7 316.438L344.95 322.875ZM350.3 322.331L363.475 307.674L357.525 302.326L344.35 316.983L350.3 322.331Z" fill="#23C7A7"/>
</g>
<g id="Group 190">
<ellipse id="eyeSvg" cx="307.813" cy="154.807" rx="3.5" ry="5" transform="rotate(-17.0552 307.813 154.807)" fill="#23C7A7"/>
<path id="eyeBrowSvg" d="M315.246 145.475C315.122 146.85 311.23 149.845 309.544 147.472C307.858 145.1 304.166 145.865 304.29 144.49C304.414 143.115 306.966 142.22 309.992 142.492C313.017 142.764 315.37 144.1 315.246 145.475Z" fill="#23C7A7"/>
</g>
<g id="tabletScreen" filter="url(#filter5_d_691_2291)">
<path d="M326 174.5C311.141 183.046 273.48 230.883 264.5 244C254.5 230 235 196 227 184.5C253.949 170.235 272 132.5 282 136C306.3 136 326 153.237 326 174.5Z" fill="#D9D9D9" fill-opacity="0.44" shape-rendering="crispEdges"/>
</g>
</g>
<g id="snowBalls">
<circle id="snow" cx="366.5" cy="261.5" r="5.5" fill="#EEF0F1"/>
<circle id="snow_2" cx="453.5" cy="287.5" r="5.5" fill="#EEF0F1"/>
<circle id="snow_3" cx="317.5" cy="332.5" r="4.5" fill="#EEF0F1"/>
<ellipse id="snow_4" cx="437.5" cy="353" rx="4.5" ry="5" fill="#EEF0F1"/>
<circle id="snow_5" cx="452" cy="224" r="10" fill="#EEF0F1"/>
<circle id="snow_6" cx="613.5" cy="272.5" r="10.5" fill="#EEF0F1"/>
<ellipse id="snow_7" cx="361.5" cy="356" rx="8.5" ry="8" fill="#EEF0F1"/>
<ellipse id="snow_8" cx="495" cy="395.5" rx="8" ry="9.5" fill="#EEF0F1"/>
</g>
</g>
<defs>
<filter id="filter0_i_691_2291" x="152" y="342" width="29" height="33" filterUnits="userSpaceOnUse" color-interpolation-filters="sRGB">
<feFlood flood-opacity="0" result="BackgroundImageFix"/>
<feBlend mode="normal" in="SourceGraphic" in2="BackgroundImageFix" result="shape"/>
<feColorMatrix in="SourceAlpha" type="matrix" values="0 0 0 0 0 0 0 0 0 0 0 0 0 0 0 0 0 0 127 0" result="hardAlpha"/>
<feOffset dy="4"/>
<feGaussianBlur stdDeviation="2"/>
<feComposite in2="hardAlpha" operator="arithmetic" k2="-1" k3="1"/>
<feColorMatrix type="matrix" values="0 0 0 0 0 0 0 0 0 0 0 0 0 0 0 0 0 0 0.25 0"/>
<feBlend mode="normal" in2="shape" result="effect1_innerShadow_691_2291"/>
</filter>
<filter id="filter1_d_691_2291" x="285" y="89.957" width="161.495" height="254.187" filterUnits="userSpaceOnUse" color-interpolation-filters="sRGB">
<feFlood flood-opacity="0" result="BackgroundImageFix"/>
<feColorMatrix in="SourceAlpha" type="matrix" values="0 0 0 0 0 0 0 0 0 0 0 0 0 0 0 0 0 0 127 0" result="hardAlpha"/>
<feOffset dy="4"/>
<feGaussianBlur stdDeviation="2"/>
<feComposite in2="hardAlpha" operator="out"/>
<feColorMatrix type="matrix" values="0 0 0 0 0 0 0 0 0 0 0 0 0 0 0 0 0 0 0.25 0"/>
<feBlend mode="normal" in2="BackgroundImageFix" result="effect1_dropShadow_691_2291"/>
<feBlend mode="normal" in="SourceGraphic" in2="effect1_dropShadow_691_2291" result="shape"/>
</filter>
<filter id="filter2_d_691_2291" x="333" y="181.048" width="68.7435" height="69.4517" filterUnits="userSpaceOnUse" color-interpolation-filters="sRGB">
<feFlood flood-opacity="0" result="BackgroundImageFix"/>
<feColorMatrix in="SourceAlpha" type="matrix" values="0 0 0 0 0 0 0 0 0 0 0 0 0 0 0 0 0 0 127 0" result="hardAlpha"/>
<feOffset dy="4"/>
<feGaussianBlur stdDeviation="2"/>
<feComposite in2="hardAlpha" operator="out"/>
<feColorMatrix type="matrix" values="0 0 0 0 0 0 0 0 0 0 0 0 0 0 0 0 0 0 0.25 0"/>
<feBlend mode="normal" in2="BackgroundImageFix" result="effect1_dropShadow_691_2291"/>
<feBlend mode="normal" in="SourceGraphic" in2="effect1_dropShadow_691_2291" result="shape"/>
</filter>
<filter id="filter3_d_691_2291" x="386.5" y="263.054" width="31.0308" height="28.4463" filterUnits="userSpaceOnUse" color-interpolation-filters="sRGB">
<feFlood flood-opacity="0" result="BackgroundImageFix"/>
<feColorMatrix in="SourceAlpha" type="matrix" values="0 0 0 0 0 0 0 0 0 0 0 0 0 0 0 0 0 0 127 0" result="hardAlpha"/>
<feOffset dy="4"/>
<feGaussianBlur stdDeviation="2"/>
<feComposite in2="hardAlpha" operator="out"/>
<feColorMatrix type="matrix" values="0 0 0 0 0 0 0 0 0 0 0 0 0 0 0 0 0 0 0.25 0"/>
<feBlend mode="normal" in2="BackgroundImageFix" result="effect1_dropShadow_691_2291"/>
<feBlend mode="normal" in="SourceGraphic" in2="effect1_dropShadow_691_2291" result="shape"/>
</filter>
<filter id="filter4_d_691_2291" x="249" y="249" width="119.5" height="85.0005" filterUnits="userSpaceOnUse" color-interpolation-filters="sRGB">
<feFlood flood-opacity="0" result="BackgroundImageFix"/>
<feColorMatrix in="SourceAlpha" type="matrix" values="0 0 0 0 0 0 0 0 0 0 0 0 0 0 0 0 0 0 127 0" result="hardAlpha"/>
<feOffset dy="4"/>
<feGaussianBlur stdDeviation="2"/>
<feComposite in2="hardAlpha" operator="out"/>
<feColorMatrix type="matrix" values="0 0 0 0 0 0 0 0 0 0 0 0 0 0 0 0 0 0 0.25 0"/>
<feBlend mode="normal" in2="BackgroundImageFix" result="effect1_dropShadow_691_2291"/>
<feBlend mode="normal" in="SourceGraphic" in2="effect1_dropShadow_691_2291" result="shape"/>
</filter>
<filter id="filter5_d_691_2291" x="207" y="119.772" width="139" height="148.228" filterUnits="userSpaceOnUse" color-interpolation-filters="sRGB">
<feFlood flood-opacity="0" result="BackgroundImageFix"/>
<feColorMatrix in="SourceAlpha" type="matrix" values="0 0 0 0 0 0 0 0 0 0 0 0 0 0 0 0 0 0 127 0" result="hardAlpha"/>
<feOffset dy="4"/>
<feGaussianBlur stdDeviation="10"/>
<feComposite in2="hardAlpha" operator="out"/>
<feColorMatrix type="matrix" values="0 0 0 0 0 0 0 0 0 0 0 0 0 0 0 0 0 0 0.25 0"/>
<feBlend mode="normal" in2="BackgroundImageFix" result="effect1_dropShadow_691_2291"/>
<feBlend mode="normal" in="SourceGraphic" in2="effect1_dropShadow_691_2291" result="shape"/>
</filter>
<radialGradient id="paint0_radial_691_2291" cx="0" cy="0" r="1" gradientUnits="userSpaceOnUse" gradientTransform="translate(197 157) rotate(45.2665) scale(76.0148)">
<stop stop-color="#D9D9D9"/>
<stop offset="1" stop-color="#D9D9D9" stop-opacity="0"/>
</radialGradient>
<radialGradient id="paint1_radial_691_2291" cx="0" cy="0" r="1" gradientUnits="userSpaceOnUse" gradientTransform="translate(195 20) rotate(51.6064) scale(537.79 689.792)">
<stop stop-color="#F6F6F6"/>
<stop offset="1" stop-color="#F3F3F3"/>
</radialGradient>
</defs>
</svg>
