<svg width="508" height="103" viewBox="0 0 508 103" fill="none" xmlns="http://www.w3.org/2000/svg">
<g filter="url(#filter0_i_541_1293)">
<path d="M11.9758 39.0859L0.0678282 2.68594H8.80383L19.1518 34.9259H14.7838L25.5998 2.68594H33.3998L43.7998 34.9259H39.5878L50.1958 2.68594H58.2558L46.3478 39.0859H37.2998L28.0958 10.7979H30.4878L21.0238 39.0859H11.9758ZM80.5845 39.5019C77.3952 39.5019 74.5872 38.8779 72.1605 37.6299C69.7685 36.3819 67.9139 34.6833 66.5965 32.5339C65.2792 30.3499 64.6205 27.8713 64.6205 25.0979C64.6205 22.2899 65.2619 19.8113 66.5445 17.6619C67.8619 15.4779 69.6472 13.7793 71.9005 12.5659C74.1539 11.3179 76.7019 10.6939 79.5445 10.6939C82.2832 10.6939 84.7445 11.2833 86.9285 12.4619C89.1472 13.6059 90.8979 15.2699 92.1805 17.4539C93.4632 19.6033 94.1045 22.1859 94.1045 25.2019C94.1045 25.5139 94.0872 25.8779 94.0525 26.2939C94.0179 26.6753 93.9832 27.0393 93.9485 27.3859H71.2245V22.6539H89.6845L86.5645 24.0579C86.5645 22.6019 86.2699 21.3366 85.6805 20.2619C85.0912 19.1873 84.2765 18.3553 83.2365 17.7659C82.1965 17.1419 80.9832 16.8299 79.5965 16.8299C78.2099 16.8299 76.9792 17.1419 75.9045 17.7659C74.8645 18.3553 74.0499 19.2046 73.4605 20.3139C72.8712 21.3886 72.5765 22.6713 72.5765 24.1619V25.4099C72.5765 26.9353 72.9059 28.2873 73.5645 29.4659C74.2579 30.6099 75.2112 31.4939 76.4245 32.1179C77.6725 32.7073 79.1285 33.0019 80.7925 33.0019C82.2832 33.0019 83.5832 32.7766 84.6925 32.3259C85.8365 31.8753 86.8765 31.1993 87.8125 30.2979L92.1285 34.9779C90.8459 36.4339 89.2339 37.5606 87.2925 38.3579C85.3512 39.1206 83.1152 39.5019 80.5845 39.5019ZM105.901 39.0859V0.501935H114.013V39.0859H105.901ZM141.458 39.5019C138.442 39.5019 135.755 38.8953 133.398 37.6819C131.041 36.4339 129.186 34.7179 127.834 32.5339C126.517 30.3499 125.858 27.8713 125.858 25.0979C125.858 22.2899 126.517 19.8113 127.834 17.6619C129.186 15.4779 131.041 13.7793 133.398 12.5659C135.755 11.3179 138.442 10.6939 141.458 10.6939C144.405 10.6939 146.97 11.3179 149.154 12.5659C151.338 13.7793 152.95 15.5299 153.99 17.8179L147.698 21.1979C146.97 19.8806 146.051 18.9099 144.942 18.2859C143.867 17.6619 142.689 17.3499 141.406 17.3499C140.019 17.3499 138.771 17.6619 137.662 18.2859C136.553 18.9099 135.669 19.7939 135.01 20.9379C134.386 22.0819 134.074 23.4686 134.074 25.0979C134.074 26.7273 134.386 28.1139 135.01 29.2579C135.669 30.4019 136.553 31.2859 137.662 31.9099C138.771 32.5339 140.019 32.8459 141.406 32.8459C142.689 32.8459 143.867 32.5513 144.942 31.9619C146.051 31.3379 146.97 30.3499 147.698 28.9979L153.99 32.4299C152.95 34.6833 151.338 36.4339 149.154 37.6819C146.97 38.8953 144.405 39.5019 141.458 39.5019ZM178.013 39.5019C175.032 39.5019 172.38 38.8779 170.057 37.6299C167.769 36.3819 165.949 34.6833 164.597 32.5339C163.28 30.3499 162.621 27.8713 162.621 25.0979C162.621 22.2899 163.28 19.8113 164.597 17.6619C165.949 15.4779 167.769 13.7793 170.057 12.5659C172.38 11.3179 175.032 10.6939 178.013 10.6939C180.96 10.6939 183.594 11.3179 185.917 12.5659C188.24 13.7793 190.06 15.4606 191.377 17.6099C192.694 19.7593 193.353 22.2553 193.353 25.0979C193.353 27.8713 192.694 30.3499 191.377 32.5339C190.06 34.6833 188.24 36.3819 185.917 37.6299C183.594 38.8779 180.96 39.5019 178.013 39.5019ZM178.013 32.8459C179.365 32.8459 180.578 32.5339 181.653 31.9099C182.728 31.2859 183.577 30.4019 184.201 29.2579C184.825 28.0793 185.137 26.6926 185.137 25.0979C185.137 23.4686 184.825 22.0819 184.201 20.9379C183.577 19.7939 182.728 18.9099 181.653 18.2859C180.578 17.6619 179.365 17.3499 178.013 17.3499C176.661 17.3499 175.448 17.6619 174.373 18.2859C173.298 18.9099 172.432 19.7939 171.773 20.9379C171.149 22.0819 170.837 23.4686 170.837 25.0979C170.837 26.6926 171.149 28.0793 171.773 29.2579C172.432 30.4019 173.298 31.2859 174.373 31.9099C175.448 32.5339 176.661 32.8459 178.013 32.8459ZM240.999 10.6939C243.218 10.6939 245.177 11.1446 246.875 12.0459C248.609 12.9126 249.961 14.2646 250.931 16.1019C251.937 17.9046 252.439 20.2273 252.439 23.0699V39.0859H244.327V24.3179C244.327 22.0646 243.859 20.4006 242.923 19.3259C241.987 18.2513 240.67 17.7139 238.971 17.7139C237.793 17.7139 236.735 17.9913 235.799 18.5459C234.863 19.0659 234.135 19.8633 233.615 20.9379C233.095 22.0126 232.835 23.3819 232.835 25.0459V39.0859H224.723V24.3179C224.723 22.0646 224.255 20.4006 223.319 19.3259C222.418 18.2513 221.118 17.7139 219.419 17.7139C218.241 17.7139 217.183 17.9913 216.247 18.5459C215.311 19.0659 214.583 19.8633 214.063 20.9379C213.543 22.0126 213.283 23.3819 213.283 25.0459V39.0859H205.171V11.1099H212.919V18.7539L211.463 16.5179C212.434 14.6113 213.803 13.1726 215.571 12.2019C217.374 11.1966 219.419 10.6939 221.707 10.6939C224.273 10.6939 226.509 11.3526 228.415 12.6699C230.357 13.9526 231.639 15.9286 232.263 18.5979L229.403 17.8179C230.339 15.6339 231.83 13.9006 233.875 12.6179C235.955 11.3353 238.33 10.6939 240.999 10.6939ZM280.193 39.5019C277.004 39.5019 274.196 38.8779 271.769 37.6299C269.377 36.3819 267.523 34.6833 266.205 32.5339C264.888 30.3499 264.229 27.8713 264.229 25.0979C264.229 22.2899 264.871 19.8113 266.153 17.6619C267.471 15.4779 269.256 13.7793 271.509 12.5659C273.763 11.3179 276.311 10.6939 279.153 10.6939C281.892 10.6939 284.353 11.2833 286.537 12.4619C288.756 13.6059 290.507 15.2699 291.789 17.4539C293.072 19.6033 293.713 22.1859 293.713 25.2019C293.713 25.5139 293.696 25.8779 293.661 26.2939C293.627 26.6753 293.592 27.0393 293.557 27.3859H270.833V22.6539H289.293L286.173 24.0579C286.173 22.6019 285.879 21.3366 285.289 20.2619C284.7 19.1873 283.885 18.3553 282.845 17.7659C281.805 17.1419 280.592 16.8299 279.205 16.8299C277.819 16.8299 276.588 17.1419 275.513 17.7659C274.473 18.3553 273.659 19.2046 273.069 20.3139C272.48 21.3886 272.185 22.6713 272.185 24.1619V25.4099C272.185 26.9353 272.515 28.2873 273.173 29.4659C273.867 30.6099 274.82 31.4939 276.033 32.1179C277.281 32.7073 278.737 33.0019 280.401 33.0019C281.892 33.0019 283.192 32.7766 284.301 32.3259C285.445 31.8753 286.485 31.1993 287.421 30.2979L291.737 34.9779C290.455 36.4339 288.843 37.5606 286.901 38.3579C284.96 39.1206 282.724 39.5019 280.193 39.5019ZM334.745 39.0859V9.54994H323.097V2.68594H354.817V9.54994H343.169V39.0859H334.745ZM375.641 39.5019C372.66 39.5019 370.008 38.8779 367.685 37.6299C365.397 36.3819 363.577 34.6833 362.225 32.5339C360.908 30.3499 360.249 27.8713 360.249 25.0979C360.249 22.2899 360.908 19.8113 362.225 17.6619C363.577 15.4779 365.397 13.7793 367.685 12.5659C370.008 11.3179 372.66 10.6939 375.641 10.6939C378.588 10.6939 381.223 11.3179 383.545 12.5659C385.868 13.7793 387.688 15.4606 389.005 17.6099C390.323 19.7593 390.981 22.2553 390.981 25.0979C390.981 27.8713 390.323 30.3499 389.005 32.5339C387.688 34.6833 385.868 36.3819 383.545 37.6299C381.223 38.8779 378.588 39.5019 375.641 39.5019ZM375.641 32.8459C376.993 32.8459 378.207 32.5339 379.281 31.9099C380.356 31.2859 381.205 30.4019 381.829 29.2579C382.453 28.0793 382.765 26.6926 382.765 25.0979C382.765 23.4686 382.453 22.0819 381.829 20.9379C381.205 19.7939 380.356 18.9099 379.281 18.2859C378.207 17.6619 376.993 17.3499 375.641 17.3499C374.289 17.3499 373.076 17.6619 372.001 18.2859C370.927 18.9099 370.06 19.7939 369.401 20.9379C368.777 22.0819 368.465 23.4686 368.465 25.0979C368.465 26.6926 368.777 28.0793 369.401 29.2579C370.06 30.4019 370.927 31.2859 372.001 31.9099C373.076 32.5339 374.289 32.8459 375.641 32.8459ZM424.494 39.0859V2.68594H431.462L446.958 28.3739H443.266L458.502 2.68594H465.418L465.522 39.0859H457.618L457.566 14.8019H459.022L446.854 35.2379H443.058L430.63 14.8019H432.398V39.0859H424.494ZM483.518 49.5899C482.062 49.5899 480.624 49.3646 479.202 48.9139C477.781 48.4633 476.62 47.8393 475.718 47.0419L478.682 41.2699C479.306 41.8246 480.017 42.2579 480.814 42.5699C481.646 42.8819 482.461 43.0379 483.258 43.0379C484.402 43.0379 485.304 42.7606 485.962 42.2059C486.656 41.6859 487.28 40.8019 487.834 39.5539L489.29 36.1219L489.914 35.2379L499.95 11.1099H507.75L495.114 40.8019C494.213 43.0553 493.173 44.8233 491.994 46.1059C490.85 47.3886 489.568 48.2899 488.146 48.8099C486.76 49.3299 485.217 49.5899 483.518 49.5899ZM488.302 40.1779L475.822 11.1099H484.194L493.866 34.5099L488.302 40.1779ZM11.0398 82.0659H28.5118V88.8259H11.0398V82.0659ZM11.6638 102.086H3.23983V65.6859H30.7478V72.4459H11.6638V102.086ZM41.767 102.086V74.1099H49.515V82.0139L48.423 79.7259C49.255 77.7499 50.5896 76.2593 52.427 75.2539C54.2643 74.2139 56.5003 73.6939 59.135 73.6939V81.1819C58.7883 81.1473 58.4763 81.1299 58.199 81.1299C57.9216 81.0953 57.627 81.0779 57.315 81.0779C55.0963 81.0779 53.2936 81.7193 51.907 83.0019C50.555 84.2499 49.879 86.2086 49.879 88.8779V102.086H41.767ZM84.0352 102.502C80.8459 102.502 78.0379 101.878 75.6112 100.63C73.2192 99.3819 71.3646 97.6833 70.0472 95.5339C68.7299 93.3499 68.0712 90.8713 68.0712 88.0979C68.0712 85.2899 68.7126 82.8113 69.9952 80.6619C71.3126 78.4779 73.0979 76.7793 75.3512 75.5659C77.6046 74.3179 80.1526 73.6939 82.9952 73.6939C85.7339 73.6939 88.1952 74.2833 90.3792 75.4619C92.5979 76.6059 94.3486 78.2699 95.6312 80.4539C96.9139 82.6033 97.5552 85.1859 97.5552 88.2019C97.5552 88.5139 97.5379 88.8779 97.5032 89.2939C97.4686 89.6753 97.4339 90.0393 97.3992 90.3859H74.6752V85.6539H93.1352L90.0152 87.0579C90.0152 85.6019 89.7206 84.3366 89.1312 83.2619C88.5419 82.1873 87.7272 81.3553 86.6872 80.7659C85.6472 80.1419 84.4339 79.8299 83.0472 79.8299C81.6606 79.8299 80.4299 80.1419 79.3552 80.7659C78.3152 81.3553 77.5006 82.2046 76.9112 83.3139C76.3219 84.3886 76.0272 85.6713 76.0272 87.1619V88.4099C76.0272 89.9353 76.3566 91.2873 77.0152 92.4659C77.7086 93.6099 78.6619 94.4939 79.8752 95.1179C81.1232 95.7073 82.5792 96.0019 84.2432 96.0019C85.7339 96.0019 87.0339 95.7766 88.1432 95.3259C89.2872 94.8753 90.3272 94.1993 91.2632 93.2979L95.5792 97.9779C94.2966 99.4339 92.6846 100.561 90.7432 101.358C88.8019 102.121 86.5659 102.502 84.0352 102.502ZM123.236 102.502C120.047 102.502 117.239 101.878 114.812 100.63C112.42 99.3819 110.565 97.6833 109.248 95.5339C107.931 93.3499 107.272 90.8713 107.272 88.0979C107.272 85.2899 107.913 82.8113 109.196 80.6619C110.513 78.4779 112.299 76.7793 114.552 75.5659C116.805 74.3179 119.353 73.6939 122.196 73.6939C124.935 73.6939 127.396 74.2833 129.58 75.4619C131.799 76.6059 133.549 78.2699 134.832 80.4539C136.115 82.6033 136.756 85.1859 136.756 88.2019C136.756 88.5139 136.739 88.8779 136.704 89.2939C136.669 89.6753 136.635 90.0393 136.6 90.3859H113.876V85.6539H132.336L129.216 87.0579C129.216 85.6019 128.921 84.3366 128.332 83.2619C127.743 82.1873 126.928 81.3553 125.888 80.7659C124.848 80.1419 123.635 79.8299 122.248 79.8299C120.861 79.8299 119.631 80.1419 118.556 80.7659C117.516 81.3553 116.701 82.2046 116.112 83.3139C115.523 84.3886 115.228 85.6713 115.228 87.1619V88.4099C115.228 89.9353 115.557 91.2873 116.216 92.4659C116.909 93.6099 117.863 94.4939 119.076 95.1179C120.324 95.7073 121.78 96.0019 123.444 96.0019C124.935 96.0019 126.235 95.7766 127.344 95.3259C128.488 94.8753 129.528 94.1993 130.464 93.2979L134.78 97.9779C133.497 99.4339 131.885 100.561 129.944 101.358C128.003 102.121 125.767 102.502 123.236 102.502ZM148.553 102.086V63.5019H156.665V102.086H148.553ZM187.749 102.086V96.6259L187.229 95.4299V85.6539C187.229 83.9206 186.692 82.5686 185.617 81.5979C184.577 80.6273 182.965 80.1419 180.781 80.1419C179.291 80.1419 177.817 80.3846 176.361 80.8699C174.94 81.3206 173.727 81.9446 172.721 82.7419L169.809 77.0739C171.335 75.9993 173.172 75.1673 175.321 74.5779C177.471 73.9886 179.655 73.6939 181.873 73.6939C186.137 73.6939 189.448 74.6993 191.805 76.7099C194.163 78.7206 195.341 81.8579 195.341 86.1219V102.086H187.749ZM179.221 102.502C177.037 102.502 175.165 102.138 173.605 101.41C172.045 100.647 170.849 99.6246 170.017 98.3419C169.185 97.0593 168.769 95.6206 168.769 94.0259C168.769 92.3619 169.168 90.9059 169.965 89.6579C170.797 88.4099 172.097 87.4393 173.865 86.7459C175.633 86.0179 177.939 85.6539 180.781 85.6539H188.217V90.3859H181.665C179.759 90.3859 178.441 90.6979 177.713 91.3219C177.02 91.9459 176.673 92.7259 176.673 93.6619C176.673 94.7019 177.072 95.5339 177.869 96.1579C178.701 96.7473 179.828 97.0419 181.249 97.0419C182.601 97.0419 183.815 96.7299 184.889 96.1059C185.964 95.4473 186.744 94.4939 187.229 93.2459L188.477 96.9899C187.888 98.7926 186.813 100.162 185.253 101.098C183.693 102.034 181.683 102.502 179.221 102.502ZM226.083 73.6939C228.302 73.6939 230.278 74.1446 232.011 75.0459C233.779 75.9126 235.166 77.2646 236.171 79.1019C237.176 80.9046 237.679 83.2273 237.679 86.0699V102.086H229.567V87.3179C229.567 85.0646 229.064 83.4006 228.059 82.3259C227.088 81.2513 225.702 80.7139 223.899 80.7139C222.616 80.7139 221.455 80.9913 220.415 81.5459C219.41 82.0659 218.612 82.8806 218.023 83.9899C217.468 85.0993 217.191 86.5206 217.191 88.2539V102.086H209.079V74.1099H216.827V81.8579L215.371 79.5179C216.376 77.6459 217.815 76.2073 219.687 75.2019C221.559 74.1966 223.691 73.6939 226.083 73.6939ZM265.151 102.502C262.135 102.502 259.449 101.895 257.091 100.682C254.734 99.4339 252.879 97.7179 251.527 95.5339C250.21 93.3499 249.551 90.8713 249.551 88.0979C249.551 85.2899 250.21 82.8113 251.527 80.6619C252.879 78.4779 254.734 76.7793 257.091 75.5659C259.449 74.3179 262.135 73.6939 265.151 73.6939C268.098 73.6939 270.663 74.3179 272.847 75.5659C275.031 76.7793 276.643 78.5299 277.683 80.8179L271.391 84.1979C270.663 82.8806 269.745 81.9099 268.635 81.2859C267.561 80.6619 266.382 80.3499 265.099 80.3499C263.713 80.3499 262.465 80.6619 261.355 81.2859C260.246 81.9099 259.362 82.7939 258.703 83.9379C258.079 85.0819 257.767 86.4686 257.767 88.0979C257.767 89.7273 258.079 91.1139 258.703 92.2579C259.362 93.4019 260.246 94.2859 261.355 94.9099C262.465 95.5339 263.713 95.8459 265.099 95.8459C266.382 95.8459 267.561 95.5513 268.635 94.9619C269.745 94.3379 270.663 93.3499 271.391 91.9979L277.683 95.4299C276.643 97.6833 275.031 99.4339 272.847 100.682C270.663 101.895 268.098 102.502 265.151 102.502ZM302.278 102.502C299.089 102.502 296.281 101.878 293.854 100.63C291.462 99.3819 289.608 97.6833 288.29 95.5339C286.973 93.3499 286.314 90.8713 286.314 88.0979C286.314 85.2899 286.956 82.8113 288.238 80.6619C289.556 78.4779 291.341 76.7793 293.594 75.5659C295.848 74.3179 298.396 73.6939 301.238 73.6939C303.977 73.6939 306.438 74.2833 308.622 75.4619C310.841 76.6059 312.592 78.2699 313.874 80.4539C315.157 82.6033 315.798 85.1859 315.798 88.2019C315.798 88.5139 315.781 88.8779 315.746 89.2939C315.712 89.6753 315.677 90.0393 315.642 90.3859H292.918V85.6539H311.378L308.258 87.0579C308.258 85.6019 307.964 84.3366 307.374 83.2619C306.785 82.1873 305.97 81.3553 304.93 80.7659C303.89 80.1419 302.677 79.8299 301.29 79.8299C299.904 79.8299 298.673 80.1419 297.598 80.7659C296.558 81.3553 295.744 82.2046 295.154 83.3139C294.565 84.3886 294.27 85.6713 294.27 87.1619V88.4099C294.27 89.9353 294.6 91.2873 295.258 92.4659C295.952 93.6099 296.905 94.4939 298.118 95.1179C299.366 95.7073 300.822 96.0019 302.486 96.0019C303.977 96.0019 305.277 95.7766 306.386 95.3259C307.53 94.8753 308.57 94.1993 309.506 93.2979L313.822 97.9779C312.54 99.4339 310.928 100.561 308.986 101.358C307.045 102.121 304.809 102.502 302.278 102.502ZM361.25 102.71C358.338 102.71 355.547 102.329 352.878 101.566C350.208 100.769 348.059 99.7459 346.43 98.4979L349.29 92.1539C350.85 93.2633 352.687 94.1819 354.802 94.9099C356.951 95.6033 359.118 95.9499 361.302 95.9499C362.966 95.9499 364.3 95.7939 365.306 95.4819C366.346 95.1353 367.108 94.6673 367.594 94.0779C368.079 93.4886 368.322 92.8126 368.322 92.0499C368.322 91.0793 367.94 90.3166 367.178 89.7619C366.415 89.1726 365.41 88.7046 364.162 88.3579C362.914 87.9766 361.527 87.6299 360.002 87.3179C358.511 86.9713 357.003 86.5553 355.478 86.0699C353.987 85.5846 352.618 84.9606 351.37 84.1979C350.122 83.4353 349.099 82.4299 348.302 81.1819C347.539 79.9339 347.158 78.3393 347.158 76.3979C347.158 74.3179 347.712 72.4286 348.822 70.7299C349.966 68.9966 351.664 67.6273 353.918 66.6219C356.206 65.5819 359.066 65.0619 362.498 65.0619C364.786 65.0619 367.039 65.3393 369.258 65.8939C371.476 66.4139 373.435 67.2113 375.134 68.2859L372.534 74.6819C370.835 73.7113 369.136 73.0006 367.438 72.5499C365.739 72.0646 364.075 71.8219 362.446 71.8219C360.816 71.8219 359.482 72.0126 358.442 72.3939C357.402 72.7753 356.656 73.2779 356.206 73.9019C355.755 74.4913 355.53 75.1846 355.53 75.9819C355.53 76.9179 355.911 77.6806 356.674 78.2699C357.436 78.8246 358.442 79.2753 359.69 79.6219C360.938 79.9686 362.307 80.3153 363.798 80.6619C365.323 81.0086 366.831 81.4073 368.322 81.8579C369.847 82.3086 371.234 82.9153 372.482 83.6779C373.73 84.4406 374.735 85.4459 375.498 86.6939C376.295 87.9419 376.694 89.5193 376.694 91.4259C376.694 93.4713 376.122 95.3433 374.978 97.0419C373.834 98.7406 372.118 100.11 369.83 101.15C367.576 102.19 364.716 102.71 361.25 102.71ZM388.274 102.086V74.1099H396.386V102.086H388.274ZM392.33 70.2099C390.839 70.2099 389.626 69.7766 388.69 68.9099C387.754 68.0433 387.286 66.9686 387.286 65.6859C387.286 64.4033 387.754 63.3286 388.69 62.4619C389.626 61.5953 390.839 61.1619 392.33 61.1619C393.82 61.1619 395.034 61.5779 395.97 62.4099C396.906 63.2073 397.374 64.2473 397.374 65.5299C397.374 66.8819 396.906 68.0086 395.97 68.9099C395.068 69.7766 393.855 70.2099 392.33 70.2099ZM421.75 102.502C418.457 102.502 415.892 101.67 414.054 100.006C412.217 98.3073 411.298 95.7939 411.298 92.4659V67.9219H419.41V92.3619C419.41 93.5406 419.722 94.4593 420.346 95.1179C420.97 95.7419 421.82 96.0539 422.894 96.0539C424.177 96.0539 425.269 95.7073 426.17 95.0139L428.354 100.734C427.522 101.323 426.517 101.774 425.338 102.086C424.194 102.363 422.998 102.502 421.75 102.502ZM406.982 80.9739V74.7339H426.378V80.9739H406.982ZM452.325 102.502C449.136 102.502 446.328 101.878 443.901 100.63C441.509 99.3819 439.654 97.6833 438.337 95.5339C437.02 93.3499 436.361 90.8713 436.361 88.0979C436.361 85.2899 437.002 82.8113 438.285 80.6619C439.602 78.4779 441.388 76.7793 443.641 75.5659C445.894 74.3179 448.442 73.6939 451.285 73.6939C454.024 73.6939 456.485 74.2833 458.669 75.4619C460.888 76.6059 462.638 78.2699 463.921 80.4539C465.204 82.6033 465.845 85.1859 465.845 88.2019C465.845 88.5139 465.828 88.8779 465.793 89.2939C465.758 89.6753 465.724 90.0393 465.689 90.3859H442.965V85.6539H461.425L458.305 87.0579C458.305 85.6019 458.01 84.3366 457.421 83.2619C456.832 82.1873 456.017 81.3553 454.977 80.7659C453.937 80.1419 452.724 79.8299 451.337 79.8299C449.95 79.8299 448.72 80.1419 447.645 80.7659C446.605 81.3553 445.79 82.2046 445.201 83.3139C444.612 84.3886 444.317 85.6713 444.317 87.1619V88.4099C444.317 89.9353 444.646 91.2873 445.305 92.4659C445.998 93.6099 446.952 94.4939 448.165 95.1179C449.413 95.7073 450.869 96.0019 452.533 96.0019C454.024 96.0019 455.324 95.7766 456.433 95.3259C457.577 94.8753 458.617 94.1993 459.553 93.2979L463.869 97.9779C462.586 99.4339 460.974 100.561 459.033 101.358C457.092 102.121 454.856 102.502 452.325 102.502ZM480.71 102.502C479.323 102.502 478.127 102.034 477.122 101.098C476.151 100.127 475.666 98.8966 475.666 97.4059C475.666 95.9153 476.151 94.7193 477.122 93.8179C478.127 92.8819 479.323 92.4139 480.71 92.4139C482.131 92.4139 483.327 92.8819 484.298 93.8179C485.268 94.7193 485.754 95.9153 485.754 97.4059C485.754 98.8966 485.268 100.127 484.298 101.098C483.327 102.034 482.131 102.502 480.71 102.502Z" fill="#C8C9CB"/>
</g>
<defs>
<filter id="filter0_i_541_1293" x="0.0678711" y="0.501953" width="507.683" height="106.208" filterUnits="userSpaceOnUse" color-interpolation-filters="sRGB">
<feFlood flood-opacity="0" result="BackgroundImageFix"/>
<feBlend mode="normal" in="SourceGraphic" in2="BackgroundImageFix" result="shape"/>
<feColorMatrix in="SourceAlpha" type="matrix" values="0 0 0 0 0 0 0 0 0 0 0 0 0 0 0 0 0 0 127 0" result="hardAlpha"/>
<feOffset dy="4"/>
<feGaussianBlur stdDeviation="2"/>
<feComposite in2="hardAlpha" operator="arithmetic" k2="-1" k3="1"/>
<feColorMatrix type="matrix" values="0 0 0 0 0 0 0 0 0 0 0 0 0 0 0 0 0 0 0.25 0"/>
<feBlend mode="normal" in2="shape" result="effect1_innerShadow_541_1293"/>
</filter>
</defs>
</svg>
