<svg width="57" height="51" viewBox="0 0 57 51" fill="none" xmlns="http://www.w3.org/2000/svg">
<g id={style.Rocks}>
<path className={style.Rock1} d="M22.3751 8.93559L22.4432 8.99893L22.5294 9.03359L25.3836 10.181L27.37 13.2629L22.4968 18.5469H17.8588H13.4232L12.3418 12.254L12.3222 12.1399L12.2545 12.0461L10.6675 9.8469L13.3038 7.46313L17.7978 4.67327L22.3751 8.93559Z" fill="#AAABAD" stroke="#B6B7B9"/>
<path className={style.Rock2} d="M42.9511 13.1592L42.9304 13.2498L42.9436 13.3418L43.3807 16.3868L41.7088 19.6501L34.6943 18.0802L32.3705 14.0664L30.148 10.2277L35.0522 6.13879L35.1411 6.06468L35.1884 5.95904L36.2964 3.48373L39.6803 4.57085L44.3464 7.06226L42.9511 13.1592Z" fill="#AAABAD" stroke="#B6B7B9"/>
<path className={style.Rock3} d="M48.9692 17.816L49.0616 17.8061L49.1443 17.7636L49.9622 17.3439L50.8118 17.4653L51.0332 19.4449L50.1159 20.5025L49.3313 21.4072L47.7508 20.4507L47.6518 20.3908L47.5365 20.3805L46.9334 20.3264L46.9157 19.4704L47.1496 18.0107L48.9692 17.816Z" fill="#AAABAD" stroke="#B6B7B9"/>
<path className={style.Rock4} d="M7.04887 28.9805L7.0696 28.8899L7.05639 28.7979L6.61925 25.7529L8.29117 22.4896L15.3057 24.0595L17.6295 28.0733L19.852 31.912L14.9478 36.0009L14.8589 36.075L14.8116 36.1806L13.7036 38.6559L10.3197 37.5688L5.65359 35.0774L7.04887 28.9805Z" fill="#AAABAD" stroke="#B6B7B9"/>
<path className={style.Rock5} d="M25.8979 27.8735L25.9659 27.9369L26.0521 27.9715L26.9051 28.3144L27.37 29.0357L26.0196 30.5H24.6196H23.422L23.1091 28.6793L23.0895 28.5652L23.0218 28.4713L22.6675 27.9804L23.3026 27.4061L24.5586 26.6264L25.8979 27.8735Z" fill="#AAABAD" stroke="#B6B7B9"/>
<path className={style.Rock6} d="M44.6249 41.1582L44.5568 41.0948L44.4706 41.0602L41.6164 39.9128L39.63 36.8308L44.5032 31.5469H49.1412H53.5768L54.6582 37.8398L54.6778 37.9538L54.7455 38.0477L56.3325 40.2469L53.6962 42.6306L49.2022 45.4205L44.6249 41.1582Z" fill="#AAABAD" stroke="#B6B7B9"/>
<path className={style.Rock7} d="M13.1152 45.4117L13.2076 45.4018L13.2903 45.3594L14.1082 44.9396L14.9578 45.061L15.1792 47.0406L14.2619 48.0982L13.4773 49.003L11.8968 48.0464L11.7978 47.9865L11.6825 47.9762L11.0794 47.9221L11.0617 47.0661L11.2956 45.6064L13.1152 45.4117Z" fill="#AAABAD" stroke="#B6B7B9"/>
<path className={style.Rock8} d="M42.8979 47.8735L42.9659 47.9369L43.0521 47.9715L43.9051 48.3144L44.37 49.0357L43.0196 50.5H41.6196H40.422L40.1091 48.6793L40.0895 48.5652L40.0218 48.4713L39.6675 47.9804L40.3026 47.4061L41.5586 46.6264L42.8979 47.8735Z" fill="#AAABAD" stroke="#B6B7B9"/>
</g>
</svg>
