{
  "accessors": [
    {
      "bufferView": 2,
      "componentType": 5126,
      "count": 10633,
      "max": [
        38.03541946411133,
        166.13851928710938,
        119.1381607055664
      ],
      "min": [
        -69.8634033203125,
        -152.92764282226563,
        -79.76461029052734
      ],
      "type": "VEC3"
    },
    {
      "bufferView": 2,
      "byteOffset": 127596,
      "componentType": 5126,
      "count": 10633,
      "max": [
        0.9999078512191772,
        0.9992361068725586,
        0.9995123744010925
      ],
      "min": [
        -0.9998791217803955,
        -0.9999002814292908,
        -0.9997491240501404
      ],
      "type": "VEC3"
    },
    {
      "bufferView": 3,
      "componentType": 5126,
      "count": 10633,
      "max": [
        0.9999404549598694,
        0.9981676340103149,
        0.9998937249183655,
        1.0
      ],
      "min": [
        -0.99996018409729,
        -0.9978665113449097,
        -0.9999817609786987,
        -1.0
      ],
      "type": "VEC4"
    },
    {
      "bufferView": 1,
      "componentType": 5126,
      "count": 10633,
      "max": [
        0.9971411824226379,
        0.9910405874252319
      ],
      "min": [
        0.009745478630065918,
        0.006025552749633789
      ],
      "type": "VEC2"
    },
    {
      "bufferView": 0,
      "componentType": 5125,
      "count": 58524,
      "type": "SCALAR"
    },
    {
      "bufferView": 2,
      "byteOffset": 255192,
      "componentType": 5126,
      "count": 988,
      "max": [
        1.1504725217819214,
        1.1504725217819214,
        2.0
      ],
      "min": [
        -1.1504725217819214,
        -1.1504725217819214,
        -5.960464477539063e-08
      ],
      "type": "VEC3"
    },
    {
      "bufferView": 2,
      "byteOffset": 267048,
      "componentType": 5126,
      "count": 988,
      "max": [
        0.98838210105896,
        0.9883842468261719,
        1.0
      ],
      "min": [
        -0.98838210105896,
        -0.98838210105896,
        -0.9924275279045105
      ],
      "type": "VEC3"
    },
    {
      "bufferView": 3,
      "byteOffset": 170128,
      "componentType": 5126,
      "count": 988,
      "max": [
        0.9979519844055176,
        0.9993324279785156,
        0.9220083951950073,
        1.0
      ],
      "min": [
        -1.0,
        -0.9977797865867615,
        -0.9221100211143494,
        -1.0
      ],
      "type": "VEC4"
    },
    {
      "bufferView": 1,
      "byteOffset": 85064,
      "componentType": 5126,
      "count": 988,
      "max": [
        0.971528172492981,
        0.9818633794784546
      ],
      "min": [
        0.056182220578193665,
        0.03384558856487274
      ],
      "type": "VEC2"
    },
    {
      "bufferView": 0,
      "byteOffset": 234096,
      "componentType": 5125,
      "count": 4620,
      "type": "SCALAR"
    }
  ],
  "asset": {
    "extras": {
      "author": "Nymchee (https://sketchfab.com/Nymchee)",
      "license": "CC-BY-4.0 (http://creativecommons.org/licenses/by/4.0/)",
      "source": "https://sketchfab.com/3d-models/marble-statue-b1965f41a1084578b80e8e6a72a055f6",
      "title": "Marble Statue"
    },
    "generator": "Sketchfab-12.65.0",
    "version": "2.0"
  },
  "bufferViews": [
    {
      "buffer": 0,
      "byteLength": 252576,
      "name": "floatBufferViews",
      "target": 34963
    },
    {
      "buffer": 0,
      "byteLength": 92968,
      "byteOffset": 252576,
      "byteStride": 8,
      "name": "floatBufferViews",
      "target": 34962
    },
    {
      "buffer": 0,
      "byteLength": 278904,
      "byteOffset": 345544,
      "byteStride": 12,
      "name": "floatBufferViews",
      "target": 34962
    },
    {
      "buffer": 0,
      "byteLength": 185936,
      "byteOffset": 624448,
      "byteStride": 16,
      "name": "floatBufferViews",
      "target": 34962
    }
  ],
  "buffers": [
    {
      "byteLength": 810384,
      "uri": "scene.bin"
    }
  ],
  "images": [
    {
      "uri": "textures/lambert1_baseColor.png"
    },
    {
      "uri": "textures/lambert1_metallicRoughness.png"
    },
    {
      "uri": "textures/lambert1_normal.png"
    },
    {
      "uri": "textures/pedestal_baseColor.png"
    },
    {
      "uri": "textures/pedestal_metallicRoughness.png"
    },
    {
      "uri": "textures/pedestal_normal.png"
    }
  ],
  "materials": [
    {
      "doubleSided": true,
      "name": "lambert1",
      "normalTexture": {
        "index": 2
      },
      "occlusionTexture": {
        "index": 1
      },
      "pbrMetallicRoughness": {
        "baseColorTexture": {
          "index": 0
        },
        "metallicRoughnessTexture": {
          "index": 1
        }
      }
    },
    {
      "doubleSided": true,
      "name": "pedestal",
      "normalTexture": {
        "index": 5
      },
      "occlusionTexture": {
        "index": 4
      },
      "pbrMetallicRoughness": {
        "baseColorTexture": {
          "index": 3
        },
        "metallicRoughnessTexture": {
          "index": 4
        }
      }
    }
  ],
  "meshes": [
    {
      "name": "body low poly_lambert1_0",
      "primitives": [
        {
          "attributes": {
            "NORMAL": 1,
            "POSITION": 0,
            "TANGENT": 2,
            "TEXCOORD_0": 3
          },
          "indices": 4,
          "material": 0,
          "mode": 4
        }
      ]
    },
    {
      "name": "pedestal low poly_pedestal_0",
      "primitives": [
        {
          "attributes": {
            "NORMAL": 6,
            "POSITION": 5,
            "TANGENT": 7,
            "TEXCOORD_0": 8
          },
          "indices": 9,
          "material": 1,
          "mode": 4
        }
      ]
    }
  ],
  "nodes": [
    {
      "children": [
        1
      ],
      "matrix": [
        2.220446049250313e-16,
        -3.828568672208042e-16,
        1.0,
        0.0,
        1.0,
        1.6081226229577296e-16,
        -2.2204460492503128e-16,
        0.0,
        -1.6081226229577292e-16,
        1.0,
        3.828568672208042e-16,
        0.0,
        -0.06120522320270538,
        -6.139997309224348e-08,
        -0.06121377274394035,
        1.0
      ],
      "name": "Sketchfab_model"
    },
    {
      "children": [
        2
      ],
      "matrix": [
        0.009999999776482582,
        0.0,
        0.0,
        0.0,
        0.0,
        0.0,
        0.009999999776482582,
        0.0,
        0.0,
        -0.009999999776482582,
        0.0,
        0.0,
        0.0,
        0.0,
        0.0,
        1.0
      ],
      "name": "Marble Statue Low Poly.fbx"
    },
    {
      "children": [
        3,
        5
      ],
      "name": "RootNode"
    },
    {
      "children": [
        4
      ],
      "matrix": [
        1.0,
        0.0,
        0.0,
        0.0,
        0.0,
        0.9999999999999867,
        1.6292067073209113e-07,
        0.0,
        0.0,
        -1.6292067073209113e-07,
        0.9999999999999867,
        0.0,
        15.504674911499023,
        309.2569885253906,
        -25.80777931213379,
        1.0
      ],
      "name": "body low poly"
    },
    {
      "mesh": 0,
      "name": "body low poly_lambert1_0"
    },
    {
      "children": [
        6
      ],
      "matrix": [
        79.05874633789063,
        0.0,
        0.0,
        0.0,
        0.0,
        -1.2880304665235604e-05,
        -79.05874633788959,
        0.0,
        0.0,
        79.05874633788959,
        -1.2880304665235604e-05,
        0.0,
        0.0,
        0.0,
        0.0,
        1.0
      ],
      "name": "pedestal low poly"
    },
    {
      "mesh": 1,
      "name": "pedestal low poly_pedestal_0"
    }
  ],
  "samplers": [
    {
      "magFilter": 9729,
      "minFilter": 9987,
      "wrapS": 10497,
      "wrapT": 10497
    }
  ],
  "scene": 0,
  "scenes": [
    {
      "name": "Sketchfab_Scene",
      "nodes": [
        0
      ]
    }
  ],
  "textures": [
    {
      "sampler": 0,
      "source": 0
    },
    {
      "sampler": 0,
      "source": 1
    },
    {
      "sampler": 0,
      "source": 2
    },
    {
      "sampler": 0,
      "source": 3
    },
    {
      "sampler": 0,
      "source": 4
    },
    {
      "sampler": 0,
      "source": 5
    }
  ]
}
