{
  "accessors": [
    {
      "bufferView": 2,
      "componentType": 5126,
      "count": 4367,
      "max": [
        4.190675258636475,
        3.2797296047210693,
        14.77627182006836
      ],
      "min": [
        -4.19584321975708,
        -5.372319221496582,
        -6.62416410446167
      ],
      "type": "VEC3"
    },
    {
      "bufferView": 2,
      "byteOffset": 52404,
      "componentType": 5126,
      "count": 4367,
      "max": [
        0.9996142387390137,
        1.0,
        1.0
      ],
      "min": [
        -0.9999896287918091,
        -1.0,
        -1.0
      ],
      "type": "VEC3"
    },
    {
      "bufferView": 3,
      "componentType": 5126,
      "count": 4367,
      "max": [
        0.9999997019767761,
        0.9999621510505676,
        1.0,
        1.0
      ],
      "min": [
        -1.0,
        -0.9999999403953552,
        -1.0,
        -1.0
      ],
      "type": "VEC4"
    },
    {
      "bufferView": 1,
      "componentType": 5126,
      "count": 4367,
      "max": [
        0.99824458360672,
        0.9984975457191467
      ],
      "min": [
        0.0014977456303313375,
        0.0014931877376511693
      ],
      "type": "VEC2"
    },
    {
      "bufferView": 1,
      "byteOffset": 34936,
      "componentType": 5126,
      "count": 4367,
      "max": [
        0.99824458360672,
        0.9984975457191467
      ],
      "min": [
        0.0014977456303313375,
        0.0014931877376511693
      ],
      "type": "VEC2"
    },
    {
      "bufferView": 0,
      "componentType": 5125,
      "count": 21360,
      "type": "SCALAR"
    }
  ],
  "asset": {
    "extras": {
      "author": "plasmaernst (https://sketchfab.com/plasmaernst)",
      "license": "CC-BY-4.0 (http://creativecommons.org/licenses/by/4.0/)",
      "source": "https://sketchfab.com/3d-models/minotaur-statue-d3f9aaecb7e94b12bc28256c85a40ce0",
      "title": "Minotaur Statue"
    },
    "generator": "Sketchfab-12.66.0",
    "version": "2.0"
  },
  "bufferViews": [
    {
      "buffer": 0,
      "byteLength": 85440,
      "name": "floatBufferViews",
      "target": 34963
    },
    {
      "buffer": 0,
      "byteLength": 69872,
      "byteOffset": 85440,
      "byteStride": 8,
      "name": "floatBufferViews",
      "target": 34962
    },
    {
      "buffer": 0,
      "byteLength": 104808,
      "byteOffset": 155312,
      "byteStride": 12,
      "name": "floatBufferViews",
      "target": 34962
    },
    {
      "buffer": 0,
      "byteLength": 69872,
      "byteOffset": 260120,
      "byteStride": 16,
      "name": "floatBufferViews",
      "target": 34962
    }
  ],
  "buffers": [
    {
      "byteLength": 329992,
      "uri": "scene.bin"
    }
  ],
  "images": [
    {
      "uri": "textures/M_Stone02_baseColor.png"
    },
    {
      "uri": "textures/M_Stone02_metallicRoughness.png"
    },
    {
      "uri": "textures/M_Stone02_normal.png"
    }
  ],
  "materials": [
    {
      "doubleSided": true,
      "name": "M_Stone02",
      "normalTexture": {
        "index": 2
      },
      "occlusionTexture": {
        "index": 1
      },
      "pbrMetallicRoughness": {
        "baseColorTexture": {
          "index": 0
        },
        "metallicFactor": 0.0,
        "metallicRoughnessTexture": {
          "index": 1
        }
      }
    }
  ],
  "meshes": [
    {
      "name": "SM_MinotaurStatue_M_Stone02_0",
      "primitives": [
        {
          "attributes": {
            "NORMAL": 1,
            "POSITION": 0,
            "TANGENT": 2,
            "TEXCOORD_0": 3,
            "TEXCOORD_1": 4
          },
          "indices": 5,
          "material": 0,
          "mode": 4
        }
      ]
    }
  ],
  "nodes": [
    {
      "children": [
        1
      ],
      "matrix": [
        1.0,
        0.0,
        0.0,
        0.0,
        0.0,
        2.220446049250313e-16,
        -1.0,
        0.0,
        0.0,
        1.0,
        2.220446049250313e-16,
        0.0,
        0.0,
        0.0,
        0.0,
        1.0
      ],
      "name": "Sketchfab_model"
    },
    {
      "children": [
        2
      ],
      "matrix": [
        1.0,
        0.0,
        0.0,
        0.0,
        0.0,
        0.0,
        1.0,
        0.0,
        0.0,
        -1.0,
        0.0,
        0.0,
        0.0,
        0.0,
        0.0,
        1.0
      ],
      "name": "13f07a7a28e24d1fab8bc03bb5136fd9.fbx"
    },
    {
      "children": [
        3
      ],
      "name": "RootNode"
    },
    {
      "children": [
        4
      ],
      "matrix": [
        100.0,
        0.0,
        0.0,
        0.0,
        0.0,
        -1.629206793918314e-05,
        -99.99999999999868,
        0.0,
        0.0,
        99.99999999999868,
        -1.629206793918314e-05,
        0.0,
        0.0,
        0.0,
        0.0,
        1.0
      ],
      "name": "SM_MinotaurStatue"
    },
    {
      "mesh": 0,
      "name": "SM_MinotaurStatue_M_Stone02_0"
    }
  ],
  "samplers": [
    {
      "magFilter": 9729,
      "minFilter": 9987,
      "wrapS": 10497,
      "wrapT": 10497
    }
  ],
  "scene": 0,
  "scenes": [
    {
      "name": "Sketchfab_Scene",
      "nodes": [
        0
      ]
    }
  ],
  "textures": [
    {
      "sampler": 0,
      "source": 0
    },
    {
      "sampler": 0,
      "source": 1
    },
    {
      "sampler": 0,
      "source": 2
    }
  ]
}
